<svg xmlns="http://www.w3.org/2000/svg" width="1105" height="857" viewBox="0 0 1105 857">
  <defs>
    <linearGradient id="about-a" x1="49.998%" x2="49.998%" y1="100.006%" y2="-.002%">
      <stop offset="0%" stop-color="gray" stop-opacity=".25"/>
      <stop offset="54%" stop-color="gray" stop-opacity=".12"/>
      <stop offset="100%" stop-color="gray" stop-opacity=".1"/>
    </linearGradient>
  </defs>
  <g fill="none" fill-rule="evenodd" transform="translate(164 31)">
    <path fill="#D5D6DB" fill-rule="nonzero" d="M581.73,626.94 C581.73,626.94 559.06,654.61 577.06,696.44 L396.06,774.94 L378.69,778.58 L370.69,743.58 L376.04,699.41 L376.04,675.27 L581.73,626.94 Z"/>
    <polygon fill="#6C63FF" fill-rule="nonzero" points="10.16 609.06 260.68 563.39 592.63 616.27 386.45 690.5"/>
    <polygon fill="#FEE934" fill-rule="nonzero" points="10.16 609.06 260.68 563.39 592.63 616.27 386.45 690.5"/>
    <path fill="#C2B343" fill-rule="nonzero" d="M10.16,609.05 C10.16,609.05 -13.27,653.44 13.73,694.44 L385.23,774.94 C385.23,774.94 362.17,739.58 386.42,690.5 L10.16,609.05 Z"/>
    <path fill="#C2B343" fill-rule="nonzero" d="M21.23,624.44 C21.23,624.44 7.84,656.92 21.23,677.94" opacity=".1"/>
    <path fill="#C2B343" fill-rule="nonzero" d="M385.23,774.94 L592.63,686.44 C592.63,686.44 604.23,688.94 596.73,697.44 C589.23,705.94 389.23,783.44 389.23,783.44 L13.73,694.44 L385.23,774.94 Z"/>
    <path fill="#C2B343" fill-rule="nonzero" d="M368.23,699.44 C368.23,699.44 348.23,723.44 368.23,759.44" opacity=".1"/>
    <rect width="94.57" height="1" x="373.076" y="713.973" fill="#000" fill-rule="nonzero" opacity=".1" transform="rotate(-18.45 420.36 714.473)"/>
    <rect width="115.23" height="1" x="371.735" y="716.502" fill="#000" fill-rule="nonzero" opacity=".1" transform="rotate(-20.82 429.35 717.002)"/>
    <rect width="133.56" height="1" x="371.133" y="721.172" fill="#000" fill-rule="nonzero" opacity=".1" transform="rotate(-22.26 437.913 721.672)"/>
    <rect width="153.74" height="1" x="370.753" y="723.181" fill="#000" fill-rule="nonzero" opacity=".1" transform="rotate(-24.31 447.623 723.68)"/>
    <rect width="168.15" height="1" x="371.635" y="725.232" fill="#000" fill-rule="nonzero" opacity=".1" transform="rotate(-23.61 455.71 725.732)"/>
    <rect width="201.22" height="1" x="372.748" y="725.852" fill="#000" fill-rule="nonzero" opacity=".1" transform="rotate(-23.36 473.358 726.352)"/>
    <polygon fill="#FFF" fill-rule="nonzero" points="103.23 613.94 279.23 576.94 386.45 597.44 242.23 643.94" opacity=".3"/>
    <path fill="#FEE934" fill-rule="nonzero" d="M592.63,616.27 C592.63,616.27 601.73,619.94 596.39,625.61 C591.05,631.28 386.42,690.5 386.42,690.5 L592.63,616.27 Z"/>
    <path fill="#D5D6DB" fill-rule="nonzero" d="M681.02,530.76 C681.02,530.76 658.36,558.42 676.36,600.26 L495.36,678.76 L477.99,682.42 L469.99,647.42 L475.42,603.26 L475.42,579.09 L681.02,530.76 Z"/>
    <polygon fill="#3A3768" fill-rule="nonzero" points="109.46 512.87 359.97 467.21 691.93 520.09 485.75 594.32"/>
    <path fill="#3A3768" fill-rule="nonzero" d="M109.42,512.87 C109.42,512.87 85.98,557.26 112.98,598.26 L484.48,678.76 C484.48,678.76 461.43,643.37 485.71,594.31 L109.42,512.87 Z"/>
    <path fill="#000" fill-rule="nonzero" d="M109.42 512.87C109.42 512.87 85.98 557.26 112.98 598.26L484.48 678.76C484.48 678.76 461.43 643.37 485.71 594.31L368.23 568.88 109.42 512.87zM120.52 528.26C120.52 528.26 107.14 560.73 120.52 581.76" opacity=".1"/>
    <path fill="#3A3768" fill-rule="nonzero" d="M484.52,678.76 L691.93,590.26 C691.93,590.26 703.52,592.76 696.02,601.26 C688.52,609.76 488.52,687.26 488.52,687.26 L113.02,598.26 L484.52,678.76 Z"/>
    <path fill="#000" fill-rule="nonzero" d="M484.52 678.76L691.93 590.26C691.93 590.26 703.52 592.76 696.02 601.26 688.52 609.76 488.52 687.26 488.52 687.26L113.02 598.26 484.52 678.76zM467.52 603.26C467.52 603.26 447.52 627.26 467.52 663.26" opacity=".1"/>
    <rect width="94.57" height="1" x="472.374" y="617.804" fill="#000" fill-rule="nonzero" opacity=".1" transform="rotate(-18.45 519.659 618.304)"/>
    <rect width="115.23" height="1" x="471.046" y="620.327" fill="#000" fill-rule="nonzero" opacity=".1" transform="rotate(-20.82 528.66 620.827)"/>
    <rect width="133.56" height="1" x="470.429" y="624.984" fill="#000" fill-rule="nonzero" opacity=".1" transform="rotate(-22.26 537.21 625.484)"/>
    <rect width="153.74" height="1" x="470.061" y="626.995" fill="#000" fill-rule="nonzero" opacity=".1" transform="rotate(-24.31 546.93 627.495)"/>
    <rect width="168.15" height="1" x="470.928" y="629.033" fill="#000" fill-rule="nonzero" opacity=".1" transform="rotate(-23.61 555.003 629.533)"/>
    <rect width="201.22" height="1" x="472.048" y="629.653" fill="#000" fill-rule="nonzero" opacity=".1" transform="rotate(-23.36 572.658 630.153)"/>
    <polygon fill="#FFF" fill-rule="nonzero" points="202.53 517.76 378.53 480.76 485.75 501.26 341.53 547.76" opacity=".45"/>
    <path fill="#3A3768" fill-rule="nonzero" d="M691.93,520.09 C691.93,520.09 701.02,523.76 695.69,529.42 C690.36,535.08 485.75,594.31 485.75,594.31 L691.93,520.09 Z"/>
    <path fill="#D5D6DB" fill-rule="nonzero" d="M690.42,420.73 C690.42,420.73 667.75,470.4 685.75,512.23 L504.75,568.73 L487.42,572.4 L479.42,537.4 L484.77,493.23 L484.77,469.06 L690.42,420.73 Z"/>
    <polygon fill="#FEE934" fill-rule="nonzero" points="118.89 402.85 369.41 357.18 701.37 410.06 495.18 484.29"/>
    <path fill="#C2B343" fill-rule="nonzero" d="M118.89,402.84 C118.89,402.84 95.42,447.23 122.42,488.23 L493.92,568.73 C493.92,568.73 470.86,533.34 495.14,484.29 L118.89,402.84 Z"/>
    <path fill="#C2B343" fill-rule="nonzero" d="M129.96,418.23 C129.96,418.23 116.57,450.71 129.96,471.73" opacity=".1"/>
    <path fill="#C2B343" fill-rule="nonzero" d="M493.96,568.73 L701.36,502.23 C701.36,502.23 712.96,504.73 705.46,513.23 C697.96,521.73 497.96,577.23 497.96,577.23 L122.46,488.23 L493.96,568.73 Z"/>
    <path fill="#C2B343" fill-rule="nonzero" d="M476.96,493.23 C476.96,493.23 456.96,517.23 476.96,553.23" opacity=".1"/>
    <rect width="94.57" height="1" x="481.817" y="507.772" fill="#000" fill-rule="nonzero" opacity=".1" transform="rotate(-18.45 529.102 508.272)"/>
    <rect width="115.23" height="1" x="480.482" y="510.3" fill="#000" fill-rule="nonzero" opacity=".1" transform="rotate(-20.82 538.097 510.8)"/>
    <rect width="133.56" height="1" x="479.856" y="514.962" fill="#000" fill-rule="nonzero" opacity=".1" transform="rotate(-22.26 546.636 515.462)"/>
    <rect width="153.74" height="1" x="479.501" y="516.964" fill="#000" fill-rule="nonzero" opacity=".1" transform="rotate(-24.31 556.371 517.464)"/>
    <rect width="168.15" height="1" x="480.374" y="519.011" fill="#000" fill-rule="nonzero" opacity=".1" transform="rotate(-23.61 564.449 519.511)"/>
    <rect width="201.22" height="1" x="481.491" y="519.639" fill="#000" fill-rule="nonzero" opacity=".1" transform="rotate(-23.36 582.1 520.139)"/>
    <polygon fill="#FFF" fill-rule="nonzero" points="211.96 407.73 387.96 370.73 495.18 391.23 350.96 437.73" opacity=".3"/>
    <path fill="#FEEF71" fill-rule="nonzero" d="M701.36,410.06 C701.36,410.06 710.46,413.73 705.12,419.4 C699.78,425.07 495.18,484.29 495.18,484.29 L701.36,410.06 Z"/>
    <path fill="url(#about-a)" fill-rule="nonzero" d="M665.96,377.29 C659.42,359.52 623.42,357.85 607.8,362.38 C596.7,365.61 573.3,369.25 560.8,371.08 L559.99,370.31 C561.61,369.83 561.65,368.65 561.45,366.9 C561.333583,364.593599 561.366986,362.282074 561.55,359.98 C569.21,362.36 576.03,356.73 576.03,356.73 L576.03,356.73 C585.03,352.73 582.61,335.61 584.33,330.93 C585.62,327.43 587.01,306.81 587.63,296.53 L587.76,296.53 L587.83,293.08 C587.92,291.59 587.96,290.72 587.96,290.72 C587.96,290.72 588.84,265.58 590.56,260.49 C592.16,255.81 593.46,232.23 593.66,228.49 C593.66,228.17 593.66,228 593.66,228 L593.53,225.82 C593.62,224.23 593.66,222.46 593.65,220.6 C593.65,212.05 592.76,201.28 592.65,199.54 C592.65,199.29 592.65,198.99 592.65,198.63 C592.72,194.98 592.26,176.7 576.71,169.79 C570.98,167.23 564.09,164.18 557.42,161.21 C555.7,146.36 551.77,131.59 552.11,116.63 C552.11,114.38 552.31,112.13 552.53,109.89 C552.53,110.54 552.46,111.2 552.45,111.89 C552.45,113.34 552.45,114.8 552.45,116.25 C553.04,97.54 560.11,78.73 559.45,60.42 C559.39,62.21 559.26,64.01 559.09,65.81 C559.435256,59.6168233 558.787058,53.4083021 557.17,47.42 C556.57,45.31 555.76,43.13 554.03,41.72 C552.394753,40.5844272 550.519368,39.8418018 548.55,39.55 C543.818022,38.3387694 539.010756,37.443462 534.16,36.87 C533.422892,34.6137376 532.329027,32.4901547 530.92,30.58 C520.78,16.66 505.76,3.58 488,0.58 C479.09,-0.92 468.84,0.33 462.78,6.7 C462.147147,7.25958887 461.552483,7.86093455 461,8.5 C457.74,12.39 456.34,17.5 453,21.38 C452.78,21.64 452.53,21.88 452.29,22.13 C445.75,27.98 435.56,29.2 428.29,34.45 C427.008995,35.3924588 425.808226,36.4393688 424.7,37.58 C421.770624,40.4829205 419.1438,43.6759867 416.86,47.11 C413.59,51.71 410.23,56.5 409.19,61.99 C407.1,72.99 414.59,83.42 415.98,94.49 C419.08,119.26 391.67,141.24 396.86,165.68 C398.244882,171.684174 401.303045,177.172919 405.68,181.51 C394.99,191.19 385.89,200.58 385.89,200.58 L385.89,201.14 L384.2,201.14 L384.37,203.14 L384.2,203.14 L385.13,213.99 L384.2,229.79 C384.2,229.79 384.2,229.96 384.2,230.28 L384.2,230.36 L384.2,230.79 C384.2,230.79 384.2,230.96 384.2,231.28 L384.26,231.28 C384.57,237.07 385.8,257.89 387.26,262.28 C388.98,267.37 389.85,292.51 389.85,292.51 C389.85,292.51 391.75,328.04 393.49,332.74 C395.23,337.44 392.76,354.51 401.79,358.54 L401.79,358.54 C404.431685,360.56635 407.559454,361.862978 410.86,362.3 C410.4,366.04 410.69,368.75 412.18,369.6 C412.81776,369.974924 413.540433,370.181402 414.28,370.2 C413.667345,371.108639 413.122534,372.061222 412.65,373.05 C409.065824,372.675797 405.544048,371.84576 402.17,370.58 C392.47,366.58 360.28,357.58 350.93,363.91 C341.58,370.24 319.08,375.98 329.47,401.46 C339.86,426.94 344.7,427.58 344.7,427.58 C347.89816,429.901672 350.703712,432.720728 353.01,435.93 C356.13,440.62 385.2,451.35 392.47,451.35 C395.560049,451.302396 398.64992,451.456054 401.72,451.81 C401.72,451.81 393.83,458.73 394.88,462.75 C395.93,466.77 392.48,498.95 392.48,498.95 C392.48,498.95 400.48,507.01 403.9,496.44 L404.02,496.6 C404.66,497.47 408.12,501.4 414.63,496.44 C417.294301,494.418677 420.124331,492.625656 423.09,491.08 L454.61,486.62 C457.896189,486.414603 461.191228,486.391234 464.48,486.55 C469.48,486.96 474.39,484 477.48,481.71 C484.01,484.19 491.35,486.9 494.84,487.89 C501.92,489.89 534.46,498.62 542.07,495.89 C543.651863,495.261025 545.058409,494.259289 546.17,492.97 L553.43,493.2 L550.03,493.88 C550.03,493.88 556.65,493.99 565.65,494.11 L565.27,494.33 L576.56,494.23 C593.08,494.38 611.64,494.43 614.08,493.88 C617.9,493.03 637.75,493.63 643.6,493.88 L645.23,493.88 C645.23,493.88 667.04,489.53 658.04,467.4 C651.12,450.4 629.85,445.46 620.41,444.1 C623.07,443.57 625.36,443.16 626.88,442.92 C633.47,441.92 646.27,435.92 647.31,433.87 C648.35,431.82 659.08,425.87 661.85,422.48 C664.62,419.09 672.53,395.06 665.96,377.29 Z M485.31,427.02 L484.24,427.37 L483.52,427.61 L482.14,428.97 C481.04,428.23 479.86,427.45 478.63,426.65 C480.8,426.78 483.03,426.91 485.31,427.02 Z"/>
    <path fill="#BE6F72" fill-rule="nonzero" d="M549.07,321.58 C549.07,321.58 564.37,361.58 573.07,357.58 C581.77,353.58 579.41,336.58 581.07,331.92 C582.73,327.26 584.57,291.92 584.57,291.92 C584.57,291.92 585.41,266.92 587.07,261.86 C588.61,257.21 589.86,233.76 590.07,230.07 C590.07,229.75 590.07,229.58 590.07,229.58 L588.42,200.58 L579.08,198.25 L557.42,206.25 L554.42,223.38 L553.25,230.07 L552.75,232.92 L549.07,321.58 Z"/>
    <path fill="#000" fill-rule="nonzero" d="M554.11,314.88 C554.11,314.88 568.71,326.83 573.11,327.88 C577.51,328.93 580.21,338.25 580.21,338.25" opacity=".1"/>
    <path fill="#BE6F72" fill-rule="nonzero" d="M429.42,323.33 C429.42,323.33 414.12,363.33 405.42,359.33 C396.72,355.33 399.08,338.33 397.42,333.67 C395.76,329.01 393.92,293.67 393.92,293.67 C393.92,293.67 393.08,268.67 391.42,263.61 C389.88,258.96 388.63,235.51 388.42,231.82 C388.42,231.5 388.42,231.33 388.42,231.33 L390.08,202.33 L399.42,200 L421.08,208 L424.08,225.13 L425.25,231.82 L425.75,234.67 L429.42,323.33 Z"/>
    <rect width="34.15" height="53.23" x="494.9" y="109.27" fill="#3E373A" fill-rule="nonzero"/>
    <rect width="34.15" height="53.23" x="494.9" y="109.27" fill="#000" fill-rule="nonzero" opacity=".1"/>
    <path fill="#4B4B5B" fill-rule="nonzero" d="M423.42,363.17 C423.42,363.17 411.75,376 416.08,378.33 C420.41,380.66 448.42,424.33 448.42,424.33 C448.42,424.33 540.42,435.66 557.77,418.66 C575.12,401.66 574.770526,371.29 574.770526,371.29 C574.770526,371.29 560.83,374.29 559.31,372.66 C557.79,371.03 549.44,363.17 549.44,363.17 C549.44,363.17 431.42,356.01 423.42,363.17 Z"/>
    <path fill="#000" fill-rule="nonzero" d="M423.42,363.17 C423.42,363.17 411.75,376 416.08,378.33 C420.41,380.66 448.42,424.33 448.42,424.33 C448.42,424.33 540.42,435.66 557.77,418.66 C575.12,401.66 574.770526,371.29 574.770526,371.29 C574.770526,371.29 560.83,374.29 559.31,372.66 C557.79,371.03 549.44,363.17 549.44,363.17 C549.44,363.17 431.42,356.01 423.42,363.17 Z" opacity=".02"/>
    <path fill="#BE6F72" fill-rule="nonzero" d="M589.04,201 L559.04,225 L549.97,225.66 L546.64,225.9 L490.71,230 L432.71,225.76 L424.08,225.13 L413.08,224.33 L390.08,202.33 C390.08,202.33 406.36,184.89 420.62,173.12 C426.24,168.47 431.55,164.71 435.42,163.23 L436.08,163 C438.514179,162.050728 440.687416,160.535633 442.42,158.58 C453.68,146.97 464.09,118.32 464.09,118.32 C464.09,118.32 513.76,92.66 507.76,126.32 C501.76,159.98 530.09,151.66 530.09,151.66 L539.43,155.92 L543.12,157.61 L552.53,161.92 L573.76,171.66 C590.42,179.33 589.04,201 589.04,201 Z"/>
    <circle cx="488.38" cy="101.06" r="44.67" fill="#000" fill-rule="nonzero" opacity=".1"/>
    <path fill="#000" fill-rule="nonzero" d="M589.11,232.82 L388.42,232.82 C388.42,232.5 388.42,232.33 388.42,232.33 L390.08,203.33 C390.08,203.33 406.36,185.89 420.62,174.12 L546.62,169.12 L552.48,162.94 L573.71,172.68 C590.38,180.34 589.04,202.01 589.04,202.01 C589.04,202.01 591.32,227.12 589.11,232.82 Z" opacity=".1"/>
    <path fill="#E7C7CA" fill-rule="nonzero" d="M589.11,231.82 L388.42,231.82 C388.42,231.5 388.42,231.33 388.42,231.33 L390.08,202.33 C390.08,202.33 406.36,184.89 420.62,173.12 L546.62,168.12 L552.48,161.94 L573.71,171.68 C590.38,179.34 589.04,201.01 589.04,201.01 C589.04,201.01 591.32,226.12 589.11,231.82 Z"/>
    <path fill="#000" fill-rule="nonzero" d="M456.21,150.5 C456.21,150.5 487.87,190.84 530.04,149.67 C572.21,108.5 534.71,241.5 534.71,241.5 L443.71,252.3 L456.21,150.5 Z" opacity=".1"/>
    <path fill="#E7C7CA" fill-rule="nonzero" d="M456.21,152.5 C456.21,152.5 487.87,192.84 530.04,151.67 C572.21,110.5 534.71,243.5 534.71,243.5 L443.71,254.3 L456.21,152.5 Z"/>
    <path fill="#000" fill-rule="nonzero" d="M543.07,159.58 L546.42,210.67 L550.01,227.67 L552.75,240.67 C552.75,240.67 559.75,340.67 557.75,345.67 C555.75,350.67 558.75,354.67 559.17,357.33 C559.59,359.99 558.75,366.67 559.08,369.67 C559.41,372.67 559.08,374 551.42,372.93 C543.76,371.86 533.08,370 533.08,370 C533.08,370 506.08,372 496.75,368.67 C487.42,365.34 469.75,365.33 469.75,365.33 C469.75,365.33 443.08,366 434.42,365 C425.76,364 421.08,375.67 415.42,372.33 C409.76,368.99 422.08,336.67 426.08,327.33 C430.08,317.99 420.75,294.33 420.75,294.33 L432.75,227.76 L435.42,212.67 L435.42,165.23 L436.08,165 C438.514179,164.050728 440.687416,162.535633 442.42,160.58 L445.42,208.32 L539.42,211.66 L539.42,157.93" opacity=".1"/>
    <path fill="#E7C7CA" fill-rule="nonzero" d="M543.07,157.58 L546.42,208.67 L550.01,225.67 L552.75,238.67 C552.75,238.67 559.75,338.67 557.75,343.67 C555.75,348.67 558.75,352.67 559.17,355.33 C559.59,357.99 558.75,364.67 559.08,367.67 C559.41,370.67 559.08,372 551.42,370.93 C543.76,369.86 533.08,368 533.08,368 C533.08,368 506.08,370 496.75,366.67 C487.42,363.34 469.75,363.33 469.75,363.33 C469.75,363.33 443.08,364 434.42,363 C425.76,362 421.08,373.67 415.42,370.33 C409.76,366.99 422.08,334.67 426.08,325.33 C430.08,315.99 420.75,292.33 420.75,292.33 L432.75,225.76 L435.42,210.67 L435.42,163.23 L436.08,163 C438.514179,162.050728 440.687416,160.535633 442.42,158.58 L445.42,206.32 L539.42,209.66 L539.42,155.93"/>
    <path fill="#000" fill-rule="nonzero" d="M553.88,50.96 C553.31,48.87 552.52,46.7 550.88,45.3 C549.313961,44.1755063 547.505156,43.4355409 545.6,43.14 C541.038782,41.9405973 536.401476,41.0518918 531.72,40.48 C531.051228,38.2595076 530.038974,36.1573937 528.72,34.25 C518.92,20.41 504.42,7.36 487.36,4.41 C478.43,2.86 468.08,4.25 462.36,11.29 C459.22,15.16 457.87,20.29 454.7,24.09 C448.59,31.47 437.56,32.38 429.86,38.09 C425.75,41.09 422.77,45.44 419.86,49.66 C416.71,54.23 413.47,58.99 412.47,64.45 C410.47,75.36 417.68,85.76 419.01,96.77 C422.01,121.4 395.61,143.25 400.6,167.55 C403.51,181.72 416.6,191.7 430.14,196.76 C434.91,198.55 440.36,200.33 442.59,204.91 C443.59,206.91 443.76,209.22 444.7,211.24 C447.86,217.98 458.25,218.24 463.83,213.33 C469.41,208.42 471.17,200.48 471.83,193.07 C474.51,160.71 461.55,128.74 463.06,96.3 C463.51,86.49 466.27,75.36 475.06,70.92 C486.89,64.92 501.12,74.92 514.14,73.01 C520.301233,88.0013811 521.609195,104.54675 517.88,120.32 C515.81,128.95 512.23,137.32 511.97,146.22 C511.58,159.77 518.89,172.15 525.21,184.13 C526.566098,186.370237 527.472975,188.853111 527.88,191.44 C527.97948,194.06471 527.490897,196.678458 526.45,199.09 C522.88,208.7 516.72,217.62 516.02,227.85 C515.814872,229.044175 516.083968,230.271255 516.77,231.27 C517.474563,231.936574 518.383787,232.345373 519.35,232.43 C530.15,234.28 539.49,224.71 544.76,215.1 C550.635611,204.485839 554.059405,192.69049 554.78,180.58 C555.87,160.22 548.57,140.19 549.02,119.81 C549.54,96.64 560.01,73.31 553.88,50.96 Z" opacity=".1"/>
    <path fill="#3E373A" fill-rule="nonzero" d="M554.88,49.96 C554.31,47.87 553.52,45.7 551.88,44.3 C550.313961,43.1755063 548.505156,42.4355409 546.6,42.14 C542.038782,40.9405973 537.401476,40.0518918 532.72,39.48 C532.051228,37.2595076 531.038974,35.1573937 529.72,33.25 C519.92,19.41 505.42,6.36 488.36,3.41 C479.43,1.86 469.08,3.25 463.36,10.29 C460.22,14.16 458.87,19.29 455.7,23.09 C449.59,30.47 438.56,31.38 430.86,37.09 C426.75,40.09 423.77,44.44 420.86,48.66 C417.71,53.23 414.47,57.99 413.47,63.45 C411.47,74.36 418.68,84.76 420.01,95.77 C423.01,120.4 396.61,142.25 401.6,166.55 C404.51,180.72 417.6,190.7 431.14,195.76 C435.91,197.55 441.36,199.33 443.59,203.91 C444.59,205.91 444.76,208.22 445.7,210.24 C448.86,216.98 459.25,217.24 464.83,212.33 C470.41,207.42 472.17,199.48 472.83,192.07 C475.51,159.71 462.55,127.74 464.06,95.3 C464.51,85.49 467.27,74.36 476.06,69.92 C487.89,63.92 502.12,73.92 515.14,72.01 C521.301233,87.0013811 522.609195,103.54675 518.88,119.32 C516.81,127.95 513.23,136.32 512.97,145.22 C512.58,158.77 519.89,171.15 526.21,183.13 C527.566098,185.370237 528.472975,187.853111 528.88,190.44 C528.97948,193.06471 528.490897,195.678458 527.45,198.09 C523.88,207.7 517.72,216.62 517.02,226.85 C516.814872,228.044175 517.083968,229.271255 517.77,230.27 C518.474563,230.936574 519.383787,231.345373 520.35,231.43 C531.15,233.28 540.49,223.71 545.76,214.1 C551.635611,203.485839 555.059405,191.69049 555.78,179.58 C556.87,159.22 549.57,139.19 550.02,118.81 C550.54,95.64 561.01,72.31 554.88,49.96 Z"/>
    <polygon fill="#C3C7D9" fill-rule="nonzero" points="532.79 492.73 572.46 494 566.77 464.58 536.38 467.47"/>
    <path fill="#4B4B5B" fill-rule="nonzero" d="M655.71,423 C653.04,426.33 642.71,432.33 641.71,434.33 C640.71,436.33 628.38,442.33 622.04,443.33 C615.7,444.33 595.71,448.67 592.04,451 C589.41,452.68 568.3,458 554.43,460.95 C550.673194,461.838785 546.870942,462.523123 543.04,463 C537.04,463.33 471.38,441 471.38,441 L484.04,428 L484.74,427.76 C488.32,426.55 504.86,420.96 514.04,418.3 C524.38,415.3 536.38,402.97 536.38,402.97 C536.38,402.97 554.04,396.97 556.38,396.3 C558.72,395.63 550.38,372.97 550.38,372.97 C550.38,372.97 588.71,367.65 603.71,363.14 C618.71,358.63 653.38,360.3 659.71,377.97 C666.04,395.64 658.42,419.67 655.71,423 Z"/>
    <path fill="#E7C7CA" fill-rule="nonzero" d="M481.04,479.33 C481.04,479.33 473.38,487.33 465.71,486.67 C458.04,486.01 431.22,488.67 431.22,488.67 C426.359661,490.608719 421.808347,493.246528 417.71,496.5 C411.44,501.44 408.11,497.5 407.49,496.66 L407.38,496.5 C404.04,507.01 396.38,499 396.38,499 C396.38,499 399.71,467 398.69,463 C397.67,459 405.28,452.13 405.28,452.13 L414.28,449.84 L437.08,444 L469.75,455.33 L481.04,479.33 Z"/>
    <path fill="#000" fill-rule="nonzero" d="M414.24 449.84L407.49 496.66 407.38 496.5C404.04 507.01 396.38 499 396.38 499 396.38 499 399.71 467 398.69 463 397.67 459 405.28 452.13 405.28 452.13L414.24 449.84zM461.42 316.66C461.42 316.66 479.08 322.66 494.42 316.66M521.71 328C521.71 328 529.04 331.66 534.71 328M521.71 336.68C521.71 336.68 534.04 338.33 536.38 335M517.71 355.33C517.71 355.33 540.87 352.33 546.62 348.33M447.04 348.33C447.04 348.33 460.04 355.66 469.71 355.33M554.42 460.95C550.663194 461.838785 546.860942 462.523123 543.03 463 537.03 463.33 471.37 441 471.37 441L484.03 428 484.73 427.76C486.73 429.17 488.37 430.38 489.54 431.3 495.05 435.64 500.37 429.97 502.37 429.97 504.37 429.97 521.7 444.3 521.7 444.3 521.7 444.3 537.7 447.97 540.37 451.3 543.04 454.63 552.37 453.97 554.03 456.3 554.53 457.02 554.59 458.79 554.42 460.95z" opacity=".1"/>
    <path fill="#4B4B5B" fill-rule="nonzero" d="M431.22,374.33 C431.22,374.33 415.04,375.26 405.71,371.33 C396.38,367.4 365.38,358.33 356.38,364.7 C347.38,371.07 325.71,376.7 335.71,402.04 C345.71,427.38 350.38,428.04 350.38,428.04 C353.474042,430.360284 356.175139,433.162673 358.38,436.34 C361.38,441.01 389.38,451.67 396.38,451.67 C403.38,451.67 415.71,451.67 433.04,463.67 C450.37,475.67 466.04,477.01 466.04,477.01 C466.04,477.01 488.04,486.01 494.89,488.01 C501.74,490.01 533.04,498.67 540.38,496.01 C547.72,493.35 552.38,476.67 552.38,476.67 C552.38,476.67 555.71,461.67 554.04,459.34 C552.37,457.01 543.04,457.67 540.38,454.34 C537.72,451.01 521.71,447.34 521.71,447.34 C521.71,447.34 504.42,433 502.42,433 C500.42,433 495.1,438.66 489.59,434.33 C478.614086,426.200425 467.08257,418.849125 455.08,412.33 C442.42,405.66 431.22,374.33 431.22,374.33 Z"/>
    <path fill="#000" fill-rule="nonzero" d="M398.69 384C404.529677 382.806961 410.591532 384.408415 415.08 388.33 423.08 395 450 408.39 450 408.39M598.71 383.58C598.71 383.58 563.04 388.98 556.38 396.31" opacity=".1"/>
    <path fill="#E7C7CA" fill-rule="nonzero" d="M639.71,494 L638.14,494 C632.5,493.8 613.39,493.2 609.71,494 C605.38,495 548.04,494 548.04,494 L559.25,491.67 C559.25,491.67 555.09,477.09 557.73,475.88 C557.73,475.88 542.73,466 554.04,459.33 C565.35,452.66 577.54,455.47 577.54,455.47 L605.93,445.85 L611.38,444 C611.38,444 643.38,445.67 652.04,467.67 C660.7,489.67 639.71,494 639.71,494 Z"/>
    <path fill="#000" fill-rule="nonzero" d="M639.71,494 L638.14,494 C647.45,486.32 668.51,462.94 605.93,445.9 L611.38,444.05 C611.38,444.05 643.38,445.72 652.04,467.72 C660.7,489.72 639.71,494 639.71,494 Z" opacity=".1"/>
    <circle cx="580.88" cy="466.33" r="1.75" fill="#4B4B5B" fill-rule="nonzero"/>
    <circle cx="570.71" cy="469.22" r="1.75" fill="#4B4B5B" fill-rule="nonzero"/>
    <path fill="#000" fill-rule="nonzero" d="M120.16 37.41C120.547826 26.4108157 118.591182 15.4549743 114.42 5.27 101.42 7.21 87.18-2.82 75.34 3.18 66.58 7.62 63.83 18.75 63.34 28.56 63.22 31.15 63.2 33.74 63.25 36.33 63.25 35.41 63.25 34.48 63.34 33.56 63.8 23.75 66.55 12.62 75.34 8.18 87.18 2.18 101.4 12.18 114.42 10.27 117.952545 18.8970483 119.897119 28.091431 120.16 37.41zM19.42 35.58C19.5912753 33.4010128 19.5477322 31.2104596 19.29 29.04 18.23 20.24 13.42 11.83 12.55 3.25 11.43 13.6 18.02 23.54 19.29 34.04 19.42 34.58 19.42 35.06 19.42 35.58zM72.11 125.32C71.49 132.74 69.74 140.67 64.11 145.59 58.48 150.51 48.11 150.24 44.98 143.5 43.98 141.5 43.83 139.17 42.86 137.17 40.64 132.59 35.18 130.81 30.41 129.02 16.86 123.95 3.79 114.02.88 99.81.620042867 98.5226836.443012013 97.2200038.35 95.91.10407828 98.8867934.282529732 101.883431.88 104.81 3.79 118.98 16.88 128.95 30.41 134.02 35.18 135.81 40.64 137.59 42.86 142.17 43.86 144.17 44.03 146.48 44.98 148.5 48.13 155.24 58.52 155.5 64.11 150.59 69.7 145.68 71.44 137.74 72.11 130.32 72.414459 126.414565 72.5179289 122.49606 72.42 118.58 72.42 120.85 72.29 123.09 72.11 125.32zM149.35 52.07C149.35 53.52 149.35 54.96 149.35 56.4 149.91 37.8 156.73 19.1 156.06.89 155.54 17.73 149.73 34.95 149.35 52.07zM127.89 127.31C128.135971 126.12346 128.213399 124.908162 128.12 123.7 127.717234 121.112011 126.810063 118.628333 125.45 116.39 119.67 105.39 113.08 94.13 112.3 81.92 112.3 82.44 112.23 82.92 112.22 83.48 111.82 97.02 119.13 109.41 125.45 121.39 126.524104 123.245491 127.344739 125.23654 127.89 127.31L127.89 127.31zM155.1 112.84C154.353488 124.955214 150.905957 136.74994 145.01 147.36 139.73 156.97 130.4 166.54 119.59 164.69 118.621503 164.606534 117.710887 164.19358 117.01 163.52 116.806901 163.290967 116.647592 163.026582 116.54 162.74 116.42 163.52 116.32 164.31 116.26 165.11 116.05324 166.301036 116.322579 167.525631 117.01 168.52 117.710887 169.19358 118.621503 169.606534 119.59 169.69 130.4 171.54 139.73 161.97 145.01 152.36 150.905957 141.74994 154.353488 129.955214 155.1 117.84 155.22 115.5 155.23 113.17 155.16 110.84 155.14 111.51 155.14 112.17 155.1 112.84z" opacity=".1" transform="translate(401 62)"/>
    <path stroke="#000" d="M557.73 475.88C557.73 475.88 583.04 486.5 599.73 463M562.71 494.44C562.71 494.44 583.38 481 609.71 494M424.35 491.39C424.35 491.39 433.03 471.81 456.21 486.74" opacity=".1"/>
    <path fill="#000" fill-rule="nonzero" d="M396.21,201.83 L413.91,185.83 C413.91,185.83 482.54,181.33 485.38,204.66 C485.38,204.66 509.71,177 560.88,183.16 L582.53,200.4 L522.69,226.66 L464.54,246.83 L421.71,227.66 L396.21,201.83 Z" opacity=".1"/>
    <path fill="#D5D6DB" fill-rule="nonzero" d="M396.21,202.83 L413.91,186.83 C413.91,186.83 482.54,182.33 485.38,205.66 C485.38,205.66 509.71,178 560.88,184.16 L582.53,201.4 L522.69,227.66 L464.54,247.83 L421.71,228.66 L396.21,202.83 Z"/>
    <polygon fill="#000" fill-rule="nonzero" points="388.38 204.83 396.21 298.5 479.21 302.67 475.61 209.4 475.54 207.83" opacity=".1"/>
    <polygon fill="#FEE934" fill-rule="nonzero" points="388.38 202.83 396.21 296.5 479.21 300.67 475.61 207.4 475.54 205.83"/>
    <polygon fill="#000" fill-rule="nonzero" points="586.33 202.83 500.71 215.67 500.71 309.76 584.38 297.67" opacity=".1"/>
    <polygon fill="#FEE934" fill-rule="nonzero" points="586.33 200.83 500.71 213.67 500.71 307.76 584.38 295.67"/>
    <polygon fill="#FFF" fill-rule="nonzero" points="566.14 223.79 519.89 228.93 520.9 244.69 566.11 239.75" opacity=".3"/>
    <path fill="#BE6F72" fill-rule="nonzero" d="M400.71,346.66 L405.42,359.33 C405.42,359.33 412.42,365.33 420.08,362.33 C427.74,359.33 434.42,357.84 437.75,354.92 C441.08,352 445.75,337.33 445.75,337.33 C445.75,337.33 450.42,321.33 455.08,317.33 C459.74,313.33 472.08,258.22 455.08,263.61 C438.08,269 425.08,319 425.08,319 C425.08,319 422.08,322.66 417.75,323 C413.42,323.34 404.75,322.33 403.08,326 C401.41,329.67 395.71,339.33 400.71,346.66 Z"/>
    <path fill="#000" fill-rule="nonzero" d="M500.71,215.66 C491.820996,217.66304 482.508433,215.34139 475.6,209.4 L479.21,302.66 C479.21,302.66 487.71,311.86 500.71,309.76 L500.71,215.66 Z" opacity=".1"/>
    <path fill="#C2B343" fill-rule="nonzero" d="M500.71,213.66 C491.820996,215.66304 482.508433,213.34139 475.6,207.4 L479.21,300.66 C479.21,300.66 487.71,309.86 500.71,307.76 L500.71,213.66 Z"/>
    <path fill="#000" fill-rule="nonzero" d="M502.71 203.15C502.71 203.15 537.54 192.5 546.62 194M463.75 198.5C463.75 198.5 429.99 190.5 424.35 192.77M524.67 204.48C524.67 204.48 547.96 195.94 556.38 200M512.94 418.71C516.549017 415.999588 520.390646 413.613629 524.42 411.58 530.42 408.69 541.42 401.19 541.42 401.19M424.35 316.66C424.35 316.66 409.74 328.61 405.35 329.66 400.96 330.71 398.25 340.03 398.25 340.03" opacity=".1"/>
    <path fill="#BE6F72" fill-rule="nonzero" d="M577.74,344.88 L573.08,357.58 C573.08,357.58 566.08,363.58 558.41,360.58 C550.74,357.58 544.08,356.09 540.74,353.17 C537.4,350.25 532.74,335.58 532.74,335.58 C532.74,335.58 528.08,319.58 523.41,315.58 C518.74,311.58 506.41,256.47 523.41,261.86 C540.41,267.25 553.41,317.25 553.41,317.25 C553.41,317.25 556.41,320.91 560.74,321.25 C565.07,321.59 573.74,320.58 575.41,324.25 C577.08,327.92 582.74,337.58 577.74,344.88 Z"/>
    <path fill="#000" fill-rule="nonzero" d="M569.57,321.52 C569.57,321.52 579.12,327.66 579.08,335" opacity=".1"/>
    <circle cx="488.54" cy="98.87" r="44.67" fill="#BE6F72" fill-rule="nonzero"/>
    <path fill="#3E373A" fill-rule="nonzero" d="M460.49,86.88 C465.91,86.03 470.66,82.88 475.84,81.07 C487.43,77 500.25,79.79 511.98,83.46 C516.48,84.87 521.05,86.46 525.77,86.46 C530.49,86.46 535.5,84.53 537.91,80.46 C540.13,76.72 539.7,71.86 537.83,67.93 C535.96,64 532.83,60.84 529.67,57.86 C519.27,48.04 506.37,38.86 492.1,39.86 C486.36,40.27 480.87,42.32 475.59,44.59 C468.941638,47.4549994 462.470139,50.7141236 456.21,54.35 C451.4,57.14 442.49,60.87 439.72,65.97 C433.42,77.46 450.69,88.42 460.49,86.88 Z"/>
    <path fill="#000" fill-rule="nonzero" d="M537.91,76.26 C535.5,80.33 530.49,82.26 525.77,82.26 C521.05,82.26 516.48,80.73 511.97,79.32 C500.24,75.65 487.43,72.85 475.83,76.93 C470.66,78.74 465.9,81.93 460.48,82.73 C452.58,83.97 439.86,77.09 438.48,68.34 C436.93,78.45 451.68,87.11 460.48,85.73 C465.9,84.88 470.66,81.73 475.83,79.93 C487.43,75.85 500.24,78.65 511.97,82.32 C516.48,83.73 521.04,85.32 525.77,85.26 C530.5,85.2 535.5,83.34 537.91,79.26 C539.159225,77.0404276 539.650729,74.474078 539.31,71.95 C539.153987,73.4696346 538.676778,74.9387579 537.91,76.26 L537.91,76.26 Z" opacity=".1"/>
  </g>
</svg>
