<svg xmlns="http://www.w3.org/2000/svg" width="1173" height="862" viewBox="0 0 1173 862">
  <g fill="none" transform="translate(30 20)">
    <ellipse cx="871.969" cy="776.515" fill="#84794C" opacity=".1" rx="137" ry="21"/>
    <path fill="#2F2E41" d="M883.26791,287.08124 C871.661,267.46915 848.69764,266.55514 848.69764,266.55514 C848.69764,266.55514 826.32116,263.69366 811.96679,293.56314 C798.58737,321.40393 780.12206,348.28479 808.99403,354.80214 L814.20914,338.57037 L817.43883,356.01057 C821.549642,356.306239 825.673555,356.376721 829.79207,356.2217 C860.71161,355.22343 890.1578,356.51376 889.20967,345.41853 C887.94931,330.66895 894.4361,305.952 883.26791,287.08124 Z"/>
    <path fill="#FBBEBE" d="M841.46862,324.01506 C841.46862,324.01506 856.46862,345.01506 847.46862,362.01506 C838.46862,379.01506 868.46862,397.01506 868.46862,397.01506 L890.46862,349.01506 C890.46862,349.01506 864.46862,332.01506 871.46862,316.01506 L841.46862,324.01506 Z"/>
    <circle cx="851.469" cy="307.015" r="26" fill="#FBBEBE"/>
    <path fill="#FBBEBE" d="M761.48913,337.07092 L783.21718,309.03716 C783.21718,309.03716 790.86778,279.65233 801.94843,281.142 C813.02908,282.63167 797.57183,316.38182 797.57183,316.38182 L775.98238,347.41238 L761.48913,337.07092 Z"/>
    <polygon fill="#FBBEBE" points="871.469 710.015 878.469 747.015 893.469 751.015 889.469 707.015"/>
    <polygon fill="#FBBEBE" points="1022.469 670.015 1049.469 707.015 1060.469 712.015 1069.469 697.015 1042.469 662.015"/>
    <path fill="#575A89" d="M865.46862,381.01506 L848.78752,359.05573 C848.78752,359.05573 816.46862,365.01506 813.46862,368.01506 C810.46862,371.01506 821.46862,426.01506 821.46862,426.01506 C821.46862,426.01506 823.46862,441.01506 832.46862,449.01506 L841.46862,455.01506 L915.46862,440.01506 L918.25108,407.08926 C920.300397,382.839009 912.028573,358.848859 895.46865,341.01509 L895.46865,341.01509 L882.59285,342.77531 L865.46862,381.01506 Z"/>
    <path fill="#575A89" d="M817.46862,370.01506 L812.46862,368.01506 L789.46862,366.01506 C789.46862,366.01506 781.46862,364.01506 783.46862,360.01506 C785.46862,356.01506 787.46862,355.01506 783.46862,354.01506 C779.46862,353.01506 778.46862,352.01506 779.46862,349.01506 C780.46862,346.01506 786.46862,340.01506 786.46862,340.01506 L769.46862,326.01506 C769.46862,326.01506 768.54852,326.66587 767.06132,327.86997 C758.62089,334.70373 731.91413,359.3594 751.46862,384.01506 C774.46862,413.01506 801.46862,430.01506 823.46862,424.01506 L817.46862,370.01506 Z"/>
    <path fill="#2F2E41" d="M839.46862 450.01506L839.46862 464.01506C839.46862 464.01506 830.46862 481.01506 833.46862 497.01506 836.46862 513.01506 837.46862 521.01506 837.46862 521.01506 837.795016 534.622782 840.154439 548.1052 844.46862 561.01506 851.46862 581.01506 828.46862 712.01506 857.46862 714.01506 886.46862 716.01506 902.46862 718.01506 911.46862 708.01506 920.46862 698.01506 896.46862 526.01506 896.46862 526.01506 896.46862 526.01506 978.46862 697.01506 995.46862 690.01506 1012.46862 683.01506 1055.46862 667.01506 1050.46862 658.01506 1045.46862 649.01506 919.46862 449.01506 919.46862 449.01506L915.46862 440.01506 839.46862 450.01506zM887.46862 740.01506C887.46862 740.01506 871.46862 739.01506 871.46862 744.01506 871.46862 749.01506 863.46862 766.01506 863.46862 766.01506 863.46862 766.01506 857.46862 786.01506 873.46862 784.01506 889.46862 782.01506 899.46862 764.01506 899.46862 764.01506L895.46862 745.01506 887.46862 740.01506zM1054.46862 705.01506C1054.46862 705.01506 1040.46862 696.01506 1041.46862 702.01506 1042.46862 708.01506 1043.46862 724.01506 1050.46862 725.01506 1057.46862 726.01506 1078.46862 732.01506 1079.46862 734.01506 1080.46862 736.01506 1104.46862 744.01506 1104.46862 731.01506 1104.46862 718.01506 1089.46862 708.01506 1089.46862 708.01506L1072.46862 695.01506C1072.46862 695.01506 1061.46862 694.01506 1059.46862 701.01506 1057.46862 708.01506 1054.46862 705.01506 1054.46862 705.01506z"/>
    <circle cx="851.508" cy="266.654" r="16.604" fill="#2F2E41"/>
    <path fill="#2F2E41" d="M833.15659,262.28506 C833.15745,253.792168 839.566913,246.668924 848.01259,245.77464 C847.432025,245.713129 846.848644,245.681974 846.26483,245.6813 C837.094824,245.6813 829.661065,253.115059 829.661065,262.285065 C829.661065,271.455071 837.094824,278.88883 846.26483,278.88883 C846.848644,278.888156 847.432025,278.857001 848.01259,278.79549 C839.566911,277.901201 833.15745,270.777954 833.15659,262.28506 Z"/>
    <polygon fill="#2F2E41" points="878.136 285.191 855.45 273.307 824.12 278.169 817.638 306.797 833.774 306.176 838.282 295.659 838.282 306.003 845.727 305.717 850.048 288.972 852.749 306.797 879.217 306.257"/>
    <path fill="#FBBEBE" d="M876.77786,452.33179 L841.79064,453.2777 C841.79064,453.2777 811.93673,459.0867 813.61169,447.03699 C815.28665,434.98728 844.41118,439.20174 844.41118,439.20174 L876.29139,434.33836 L876.77786,452.33179 Z"/>
    <path fill="#575A89" d="M904.45988,339.31993 C908.09298,338.769887 911.586234,340.944938 912.69574,344.44793 C919.54521,366.03193 940.64651,438.26129 919.68107,448.17078 C894.98749,459.84242 876.96707,459.32925 876.96707,459.32925 L867.32173,435.58125 L876.10224,427.34094 L885.47665,367.06557 L889.96865,341.51508 L904.45988,339.31993 Z"/>
    <polygon fill="#000" points="897.969 379.515 893.969 419.515 858.969 434.515 897.969 425.515" opacity=".4"/>
    <path fill="#3F3D56" d="M709.21431,247.46267 L709.21431,247.46267 C720.487441,250.44982 730.240785,257.534923 736.56679,267.33228 L739.83762,272.39796 L740.00221,272.60749 L797.38731,289.39887 C799.575683,290.039209 800.848057,292.314243 800.2481,294.51403 L795.79297,310.84903 C795.499866,311.923707 794.790209,312.837083 793.821308,313.386692 C792.852406,313.936302 791.704301,314.076741 790.63149,313.77688 L733.23199,297.73301 L733.23074,297.73461 L727.46588,299.91411 C716.850637,303.92738 705.207242,304.323089 694.34402,301.03978 L694.34402,301.03978 L709.21431,247.46267 Z"/>
    <ellipse cx="763.341" cy="292.991" fill="#575A89" rx="3.504" ry="6.57" transform="rotate(-73.69 763.341 292.99)"/>
    <circle cx="766.716" cy="294.14" r="2.409" fill="#3F3D56"/>
    <ellipse cx="701.928" cy="274.485" fill="#575A89" rx="28.09" ry="12.703" transform="rotate(-72.034 701.928 274.485)"/>
    <path fill="#000" d="M712.22803,277.88139 C716.83895,263.6616 715.5849,250.40919 709.51713,247.5263 C709.882289,247.571869 710.242376,247.651551 710.59267,247.7643 C717.26615,249.9283 718.79691,263.64576 714.01167,278.4033 C709.22643,293.16084 699.93729,303.36981 693.26377,301.20588 C693.021835,301.12673 692.785311,301.03191 692.5557,300.92202 C699.11997,301.75788 707.69482,291.86161 712.22803,277.88139 Z" opacity=".4"/>
    <path fill="#FEE934" d="M709.96862,247.51506 L579.73086,146.48982 C556.700516,128.496303 534.600264,109.343061 513.51575,89.10432 C476.39043,53.71661 425.99231,25.42353 367.31451,10.36003 C224.75331,-26.23762 111.81585,38.65447 60.44866,133.93828 C-18.04591,279.54216 -78.20155,515.81768 269.84266,390.04839 C345.95949,362.54277 423.00746,359.61907 481.4286,345.13066 L692.9686,301.51506 L709.96862,247.51506 Z"/>
    <circle cx="318.969" cy="70.515" r="7" fill="#3F3D56"/>
    <polygon fill="#3F3D56" points="454.949 86.695 453.127 86.695 453.127 84.873 452.771 84.873 452.771 86.695 450.949 86.695 450.949 87.051 452.771 87.051 452.771 88.873 453.127 88.873 453.127 87.051 454.949 87.051"/>
    <polygon fill="#3F3D56" points="637.949 238.695 636.127 238.695 636.127 236.873 635.771 236.873 635.771 238.695 633.949 238.695 633.949 239.051 635.771 239.051 635.771 240.873 636.127 240.873 636.127 239.051 637.949 239.051"/>
    <polygon fill="#3F3D56" points="624.949 285.695 623.127 285.695 623.127 283.873 622.771 283.873 622.771 285.695 620.949 285.695 620.949 286.051 622.771 286.051 622.771 287.873 623.127 287.873 623.127 286.051 624.949 286.051"/>
    <polygon fill="#3F3D56" points="65.949 325.695 64.127 325.695 64.127 323.873 63.771 323.873 63.771 325.695 61.949 325.695 61.949 326.051 63.771 326.051 63.771 327.873 64.127 327.873 64.127 326.051 65.949 326.051"/>
    <polygon fill="#3F3D56" points="145.949 107.695 144.127 107.695 144.127 105.873 143.771 105.873 143.771 107.695 141.949 107.695 141.949 108.051 143.771 108.051 143.771 109.873 144.127 109.873 144.127 108.051 145.949 108.051"/>
    <polygon fill="#3F3D56" points="456.949 293.695 455.127 293.695 455.127 291.873 454.771 291.873 454.771 293.695 452.949 293.695 452.949 294.051 454.771 294.051 454.771 295.873 455.127 295.873 455.127 294.051 456.949 294.051"/>
    <polygon fill="#3F3D56" points="265.949 43.695 264.127 43.695 264.127 41.873 263.771 41.873 263.771 43.695 261.949 43.695 261.949 44.051 263.771 44.051 263.771 45.873 264.127 45.873 264.127 44.051 265.949 44.051"/>
    <path fill="#3F3D56" d="M266.64925 187.67299L264.37925 188.02299C265.08925 192.56299 265.64925 197.20299 266.05925 201.79299L268.34925 201.59299C267.93923 196.94301 267.36923 192.26302 266.64925 187.67299zM260.43923 160.33297L258.23923 161.00297C259.56923 165.40297 260.75923 169.91297 261.76923 174.40297L264.01923 173.89297C262.98922 169.35299 261.77926 164.79299 260.43923 160.33297zM250.52926 134.113L248.43926 135.073C250.35926 139.263 252.15926 143.563 253.78926 147.863L255.93926 147.053C254.28931 142.70296 252.47931 138.34298 250.52926 134.113zM237.12924 109.53298L235.18924 110.76298C237.65924 114.64292 240.02924 118.66298 242.22924 122.69298L244.24924 121.59298C242.02926 117.51302 239.62924 113.45296 237.12924 109.53298zM220.46931 87.00301L218.71931 88.49301C221.69931 91.99301 224.59931 95.65301 227.33931 99.35301L229.17931 97.98301C226.41921 94.243 223.48922 90.54299 220.46931 87.00301zM200.88924 66.94301L199.35924 68.65301C202.79924 71.72301 206.16924 74.95301 209.37924 78.24301L211.02924 76.63301C207.77931 73.303 204.36923 70.04299 200.88924 66.94301zM178.76925 49.72298L177.47925 51.62298C181.29925 54.19298 185.07925 56.93298 188.70925 59.76298L190.12925 57.95292C186.44924 55.09298 182.62924 52.32302 178.76925 49.72298zM158.63924 37.76302L158.63924 40.36302C161.02924 41.61302 163.39924 42.92302 165.71924 44.26302L166.86924 42.27302C164.169213 40.7129867 161.42588 39.2096533 158.63924 37.76302zM266.80421 215.97872L269.10284 215.93694C269.14507 218.25804 269.14821 220.59145 269.11226 222.87301L266.81382 222.83712C266.84877 220.58153 266.84576 218.27399 266.80421 215.97872zM131.64925 384.67299L129.37925 385.02299C130.08925 389.56299 130.64925 394.20299 131.05925 398.79299L133.34925 398.59299C132.93923 393.94301 132.36923 389.26302 131.64925 384.67299zM125.43923 357.33297L123.23923 358.00297C124.56923 362.40297 125.75923 366.91297 126.76923 371.40297L129.01923 370.89297C127.98922 366.35299 126.77931 361.79299 125.43923 357.33297zM115.52931 331.113L113.43931 332.073C115.35931 336.263 117.15931 340.563 118.78931 344.863L120.93931 344.053C119.28931 339.70296 117.47931 335.34298 115.52931 331.113zM102.12924 306.53298L100.18924 307.76298C102.65924 311.64292 105.02924 315.66298 107.22924 319.69298L109.24924 318.59298C107.02931 314.51302 104.62924 310.45296 102.12924 306.53298zM85.46931 284.00301L83.71931 285.49301C86.69931 288.99301 89.59931 292.65301 92.33931 296.35301L94.17931 294.98301C91.41921 291.243 88.48922 287.54299 85.46931 284.00301zM65.88924 263.94301L64.35924 265.65301C67.79924 268.72301 71.16924 271.95301 74.37924 275.24301L76.02924 273.63301C72.77931 270.303 69.36923 267.04299 65.88924 263.94301zM43.76925 246.72298L42.47925 248.62298C46.2992 251.19298 50.07925 253.93298 53.70925 256.76298L55.12925 254.95292C51.44924 252.09298 47.62924 249.32302 43.76925 246.72298zM23.63924 234.76302L23.63924 237.36302C26.02924 238.61302 28.39924 239.92302 30.71924 241.26302L31.86924 239.27302C29.1692133 237.712987 26.42588 236.209653 23.63924 234.76302zM131.80421 412.97872L134.10284 412.93694C134.14507 415.25804 134.14821 417.59145 134.11226 419.87301L131.81382 419.83712C131.84877 417.58153 131.84576 415.27399 131.80421 412.97872zM593.64925 285.67299L591.37925 286.02299C592.08925 290.56299 592.64925 295.20299 593.05925 299.79299L595.34925 299.59299C594.93923 294.94301 594.36923 290.26302 593.64925 285.67299zM587.43923 258.33297L585.23923 259.00297C586.56923 263.40297 587.75923 267.91297 588.76923 272.40297L591.01923 271.89297C589.98922 267.35299 588.77931 262.79299 587.43923 258.33297zM577.52931 232.113L575.43931 233.073C577.35931 237.263 579.15931 241.563 580.78931 245.863L582.93931 245.053C581.28931 240.70296 579.47931 236.34298 577.52931 232.113zM564.12924 207.53298L562.18924 208.76298C564.65924 212.64292 567.02924 216.66298 569.22924 220.69298L571.24924 219.59298C569.02931 215.51302 566.62924 211.45296 564.12924 207.53298zM547.46931 185.00301L545.71931 186.49301C548.69931 189.99301 551.59931 193.65301 554.33931 197.35301L556.17931 195.98301C553.41921 192.243 550.48922 188.54299 547.46931 185.00301zM527.88924 164.94301L526.35924 166.65301C529.79924 169.72301 533.16924 172.95301 536.37924 176.24301L538.02924 174.63301C534.77931 171.303 531.36923 168.04299 527.88924 164.94301zM505.76925 147.72298L504.47925 149.62298C508.29925 152.19298 512.07925 154.93298 515.70925 157.76298L517.12925 155.95292C513.44924 153.09298 509.62924 150.32302 505.76925 147.72298zM485.63924 135.76302L485.63924 138.36302C488.02924 139.61302 490.39924 140.92302 492.71924 142.26302L493.86924 140.27302C491.169213 138.712987 488.42588 137.209653 485.63924 135.76302zM593.80421 313.97872L596.10284 313.93694C596.14507 316.25804 596.14821 318.59145 596.11226 320.87301L593.81382 320.83712C593.84877 318.58153 593.84576 316.27399 593.80421 313.97872z"/>
    <polygon fill="#3F3D56" points="149.295 199.895 147.6 199.895 147.6 198.199 147.269 198.199 147.269 199.895 145.573 199.895 145.573 200.225 147.269 200.225 147.269 201.921 147.6 201.921 147.6 200.225 149.295 200.225"/>
    <polygon fill="#3F3D56" points="129.754 302.252 128.059 302.252 128.059 300.556 127.728 300.556 127.728 302.252 126.032 302.252 126.032 302.583 127.728 302.583 127.728 304.278 128.059 304.278 128.059 302.583 129.754 302.583"/>
    <polygon fill="#3F3D56" points="72.417 391.959 70.721 391.959 70.721 390.264 70.39 390.264 70.39 391.959 68.695 391.959 68.695 392.29 70.39 392.29 70.39 393.986 70.721 393.986 70.721 392.29 72.417 392.29"/>
    <path fill="#3F3D56" d="M250.713901,119.208232 C295.399389,78.1402656 363.382473,75.8713883 410.706694,113.868609 C458.030916,151.86583 470.503386,218.733498 440.059663,271.23636 C409.61594,323.739221 345.386324,346.131274 288.90036,323.93428 C284.021357,341.348861 267.995851,353.270176 249.913794,352.936241 C231.831737,352.602307 216.257327,340.097415 212.024646,322.514562 C207.791966,304.931708 215.969412,286.709086 231.91859,278.18289 C198.042033,227.826663 206.028413,160.276198 250.713901,119.208232 Z"/>
    <path fill="#D6D9FF" d="M333.1281,139.43695 C361.2821,139.43695 380.6521,155.05304 380.6521,177.50117 C380.6521,192.36649 373.44467,202.65209 359.55536,210.83552 C346.4919,218.41834 342.06236,223.97406 342.06236,233.58396 C342.062363,235.156986 341.437482,236.665586 340.325184,237.777884 C339.212886,238.890182 337.704286,239.51506 336.13126,239.51506 L321.73831,239.51506 C318.543132,239.51506 315.922206,236.983975 315.81081,233.79074 L315.78526,233.05841 C314.50895,217.59241 319.91452,207.98257 333.50353,200.02441 C346.1916,192.44159 351.52209,187.63664 351.52209,178.32705 C351.52209,169.01746 342.51281,162.18542 331.32629,162.18542 C322.82377,162.18542 316.09496,166.32406 313.00858,173.08102 C310.793754,177.751592 306.065411,180.708145 300.89658,180.65445 C291.14458,180.65445 284.70231,170.28386 289.26301,161.66397 C296.47738,148.02831 311.69925,139.43695 333.1281,139.43695 Z M329.4493,252.65359 C338.38351,252.65359 345.59092,259.41059 345.59092,268.11953 C345.59092,276.82847 338.38349,283.58553 329.44929,283.58553 C320.51509,283.58553 313.38274,276.82853 313.38274,268.11953 C313.38274,259.48564 320.59018,252.65359 329.4493,252.65359 Z"/>
  </g>
</svg>
