<svg xmlns="http://www.w3.org/2000/svg" width="1215" height="961" viewBox="0 0 1215 961">
  <defs>
    <linearGradient id="roadmap-a" x1="50.074%" x2="50.074%" y1="100.008%" y2="-.068%">
      <stop offset="0%" stop-color="gray" stop-opacity=".25"/>
      <stop offset="54%" stop-color="gray" stop-opacity=".12"/>
      <stop offset="100%" stop-color="gray" stop-opacity=".1"/>
    </linearGradient>
  </defs>
  <g fill="none" fill-rule="evenodd">
    <rect width="78" height="78" x="246.5" y="696.7" fill="#C2B34D" fill-rule="nonzero"/>
    <path fill="#84794C" fill-rule="nonzero" d="M694.8,189.4 C630.1,187.2 568.4,166.3 509.6,143.4 C450.8,120.5 392.4,95.2 329.2,83.1 C288.6,75.3 242.2,74.2 209.4,96 C177.9,117 167.7,153.2 162.2,186.7 C158.1,212 155.7,238.6 166.9,262.2 C174.7,278.6 188.6,292.4 198.3,308.2 C231.8,362.9 208.1,430.4 171.9,483.8 C154.9,508.9 135.1,532.8 122,559.5 C108.9,586.2 102.8,616.7 114.3,644 C125.7,671 152.8,691.2 182.2,705.5 C241.9,734.4 312.2,742.7 380.8,747.4 C532.6,757.8 685.3,753.3 837.5,748.8 C893.8,747.1 950.4,745.4 1005.8,736.7 C1036.6,731.9 1068.4,724.2 1090.7,705.7 C1119.1,682.2 1126.1,642.3 1107.1,612.8 C1075.2,563.3 987.1,551 964.8,497.9 C952.5,468.7 965.1,436.1 983,409 C1021.2,350.8 1085.3,299.8 1088.7,233.3 C1091,187.6 1060.2,141.9 1012.6,120.3 C962.7,97.6 893.4,100.5 856.6,138 C818.6,176.5 752,191.4 694.8,189.4 Z" opacity=".1"/>
    <g fill="#464353" fill-rule="nonzero" transform="translate(466 190)">
      <path d="M297.6 136.8L301.9 136.8C303.2 136.8 304.2 137.8 304.2 139.1L304.2 207.5C304.2 208.8 303.2 209.8 301.9 209.8L297.6 209.8C296.3 209.8 295.3 208.8 295.3 207.5L295.3 139.1C295.3 137.8 296.4 136.8 297.6 136.8zM3.2 79.6L3.6 79.6C4.9 79.6 5.9 80.6 5.9 81.9L5.9 101.4C5.9 102.7 4.9 103.7 3.6 103.7L3.2 103.7C1.9 103.7.9 102.7.9 101.4L.9 81.9C.9 80.6 1.9 79.6 3.2 79.6zM3 123.6L4 123.6C5.3 123.6 6.3 124.6 6.3 125.9L6.3 163.2C6.3 164.5 5.3 165.5 4 165.5L3 165.5C1.7 165.5.7 164.5.7 163.2L.7 125.9C.7 124.6 1.7 123.6 3 123.6zM3.1 180.1L3.8 180.1C5.1 180.1 6.1 181.1 6.1 182.4L6.1 220C6.1 221.3 5.1 222.3 3.8 222.3L3.1 222.3C1.8 222.3.8 221.3.8 220L.8 182.4C.8 181.1 1.8 180.1 3.1 180.1z"/>
      <path d="M42.7,0.1 L261.1,0.1 C282.6,0.1 300.1,17.6 300.1,39.1 L300.1,563.5 C300.1,585 282.6,602.5 261.1,602.5 L42.7,602.5 C21.2,602.5 3.7,585 3.7,563.5 L3.7,39.1 C3.7,17.6 21.2,0.1 42.7,0.1 Z"/>
      <path d="M127.2,18.1 L160.9,18.1 C163,18.1 164.8,19.8 164.8,22 L164.8,22.7 C164.8,24.8 163.1,26.6 160.9,26.6 L127.2,26.6 C125.1,26.6 123.3,24.9 123.3,22.7 L123.3,22 C123.3,19.9 125,18.1 127.2,18.1 Z"/>
      <circle cx="175.7" cy="22.3" r="4.8"/>
    </g>
    <ellipse cx="291" cy="806.4" fill="#84794C" fill-rule="nonzero" opacity=".1" rx="200" ry="20.4"/>
    <ellipse cx="735.7" cy="874.4" fill="#84794C" fill-rule="nonzero" opacity=".1" rx="93.7" ry="9.5"/>
    <ellipse cx="1055.8" cy="826.3" fill="#84794C" fill-rule="nonzero" opacity=".1" rx="93.7" ry="9.5"/>
    <path fill="#FEE934" fill-rule="nonzero" d="M724.2,205.8 L690.3,205.8 L690.3,209.9 C690.3,220.6 681.6,229.3 670.9,229.3 L670.9,229.3 L562.8,229.3 C552.1,229.3 543.4,220.6 543.4,209.9 C543.4,209.9 543.4,209.9 543.4,209.9 L543.4,205.8 L511.6,205.8 C498.6,205.8 488.1,216.3 488.1,229.3 C488.1,229.3 488.1,229.3 488.1,229.3 L488.1,753.2 C488.1,766.2 498.6,776.7 511.6,776.7 C511.6,776.7 511.6,776.7 511.6,776.7 L724.3,776.7 C737.3,776.7 747.8,766.2 747.8,753.2 L747.8,229.4 C747.8,216.4 737.2,205.8 724.2,205.8 Z"/>
    <rect width="78" height="78" x="637.5" y="565.9" fill="#3A3768" fill-rule="nonzero" opacity=".3"/>
    <rect width="78" height="78" x="522.5" y="462.9" fill="#3A3768" fill-rule="nonzero" opacity=".3"/>
    <rect width="78" height="78" x="530" y="667.1" fill="#3A3768" fill-rule="nonzero" opacity=".3"/>
    <rect width="78" height="78" x="512.6" y="271.3" fill="#FFF" fill-rule="nonzero"/>
    <path fill="#FEE934" fill-rule="nonzero" d="M566.8,296.8 L564,299.6 C567.8,303.4 567.8,309.6 564,313.4 C564,313.4 564,313.4 564,313.4 L566.8,316.2 C572.1,310.8 572.1,302.1 566.8,296.8 Z"/>
    <path fill="#FEE934" fill-rule="nonzero" d="M572.3,291.4 L569.6,294.1 C576.4,300.9 576.4,311.9 569.6,318.7 L572.3,321.4 C580.6,313.2 580.6,299.7 572.3,291.4 L572.3,291.4 Z M559.3,301.7 L559.3,289.2 L555.5,289.2 L544,298.8 L528.6,298.8 L524.8,300.7 L524.8,314.2 L528.6,316.1 L538.2,331.5 L544,331.5 L540.4,316.1 L544,316.1 L555.5,323.8 L559.3,323.8 L559.3,311.3 C561.9,310.7 563.6,308.1 563,305.4 C562.7,303.5 561.2,302.1 559.3,301.7 L559.3,301.7 Z"/>
    <rect width="77.997" height="77.997" x="658.136" y="553.816" fill="#FFF" fill-rule="nonzero" transform="rotate(-42.138 697.134 592.814)"/>
    <path fill="#FEE934" fill-rule="nonzero" d="M674.6,582.1 L680.3,577 L711.3,611.2 L705.6,616.4 L674.6,582.1 Z M687.9,614.1 L693.6,608.9 L702.6,618.9 L696.9,624.1 L687.9,614.1 Z M699.9,593 L705.6,587.8 L719.8,603.5 L714.1,608.7 L699.9,593 Z M700.7,576.7 L706.4,571.5 L728.3,595.7 L722.6,600.9 L700.7,576.7 Z"/>
    <rect width="78" height="78" x="636.2" y="365.3" fill="#FFF" fill-rule="nonzero"/>
    <path fill="#FEE934" fill-rule="nonzero" d="M690.1,395 L679.6,411 C680.4,412 680.9,413.3 680.9,414.6 C680.8,417.8 678.1,420.3 674.9,420.1 C671.9,420 669.5,417.6 669.4,414.6 C669.4,414.2 669.4,413.9 669.5,413.5 L662.6,409.5 C660.8,411.3 658,411.6 655.8,410.4 L648.4,417.3 L648.4,424.2 C648.4,427 650.7,429.3 653.5,429.3 L697,429.3 C699.8,429.3 702.1,427 702.1,424.2 L702.1,398.7 L695.1,394 C694.1,394.8 692.9,395.2 691.6,395.2 C691.1,395.2 690.6,395.1 690.1,395 L690.1,395 Z"/>
    <path fill="#FEE934" fill-rule="nonzero" d="M658.6,399.6 C661.8,399.6 664.4,402.2 664.4,405.3 C664.4,405.3 664.4,405.3 664.4,405.3 C664.4,405.5 664.4,405.8 664.4,406.1 L671.6,410.1 C672.6,409.3 673.9,408.8 675.3,408.8 C675.7,408.8 676.1,408.8 676.5,408.9 L687,392.6 C685.2,390 685.8,386.4 688.4,384.6 C691,382.8 694.6,383.4 696.4,386 C697.1,387 697.5,388.1 697.5,389.3 C697.5,389.8 697.4,390.2 697.3,390.7 L702.3,394 L702.3,384.4 C702.3,381.6 700,379.3 697.2,379.3 L653.6,379.3 C650.8,379.3 648.5,381.6 648.5,384.4 L648.5,412 L653.3,407.4 C653.1,406.8 652.9,406.1 652.9,405.4 C652.8,402.2 655.4,399.6 658.6,399.6 Z"/>
    <rect width="78" height="78" x="537.6" y="452.3" fill="#FFF" fill-rule="nonzero"/>
    <path fill="#FEE934" fill-rule="nonzero" d="M600.2 466.5L552.2 492.5C551.7 492.8 551.5 493.4 551.8 493.9 551.9 494.1 552.1 494.2 552.3 494.3L560.5 497.4C561 497.6 561.4 497.9 561.6 498.4L568 511.5C568.1 512.1 569.2 512.2 569.2 511.6L568.2 500.8C568.3 500 568.6 499.2 569.1 498.6L594 474.2C594.1 474.1 594.4 474 594.5 474 594.8 474.1 595 474.4 594.9 474.7 594.9 474.8 594.8 474.9 594.8 474.9L573.3 501.1C572.8 501.7 572.6 502.5 572.5 503.3L571.2 512.7C571.3 513.5 571.9 513.8 572.5 513.1L577.1 507.7C577.4 507.3 578 507.2 578.5 507.5L590.4 516.2C590.9 516.5 591.5 516.4 591.8 515.9 591.9 515.8 591.9 515.7 591.9 515.6L601.7 467.6C601.8 467.1 601.4 466.5 600.9 466.4 600.5 466.3 600.3 466.4 600.2 466.5L600.2 466.5zM1024.8 810.6C1029.3 811.2 1034 811.6 1038.4 810.1 1039.1 809.9 1039.8 809.4 1039.7 808.7 1039.6 808.5 1039.5 808.2 1039.4 808 1037.8 805.5 1036.4 802.9 1035.3 800.2 1035.3 800.1 1035.2 799.9 1035.1 799.9 1035 799.8 1034.8 799.8 1034.7 799.9 1032.7 800.4 1031 801.7 1029 802.3 1028 802.6 1026.9 802.7 1025.9 802.5 1025 802.4 1023.8 801.7 1022.9 801.7 1023.3 804.8 1024.5 807.6 1024.8 810.6zM1110.8 803C1113.8 801 1116.9 798.8 1118.7 795.6 1118.8 795.4 1118.9 795.2 1118.9 795 1118.9 794.8 1118.8 794.6 1118.7 794.4 1117 791.7 1114.8 789.4 1112.3 787.5 1111 788.4 1109.8 789.5 1108.7 790.8 1107.9 791.6 1105.9 792.9 1105.9 794.1 1105.9 794.8 1106.7 795.6 1107.1 796.1 1107.6 796.8 1108.1 797.6 1108.5 798.4 1108.6 798.7 1111 802.9 1110.8 803z"/>
    <path fill="#514E7F" fill-rule="nonzero" d="M1042.6,819.8 C1042.7,820.5 1042.5,821.2 1042.1,821.8 C1041.8,822.1 1041.4,822.3 1040.9,822.5 C1034.5,824.8 1027.2,821.9 1020.9,824.2 C1019.6,824.7 1018.4,825.3 1017.1,825.8 C1015.5,826.3 1013.9,826.6 1012.3,826.6 C1010.1,826.8 1007.8,826.9 1005.5,827 C1003.8,827.1 1002.1,827 1000.4,826.6 C998.7,826.2 997.3,825 996.5,823.5 C996.2,822.8 996.1,822 996.3,821.3 C996.4,821 996.5,820.8 996.7,820.6 C997.1,820.1 997.6,819.7 998.2,819.4 L1000.5,817.9 C1001.6,817.1 1002.8,816.5 1004,816 C1004.9,815.7 1005.9,815.6 1006.8,815.3 C1010.1,814.3 1012.6,811.7 1014.9,809.2 L1018.1,805.8 C1018.4,805.4 1018.8,805.1 1019.2,804.9 C1019.6,804.7 1020.1,804.7 1020.6,804.8 C1023.7,805 1026.7,806 1029.3,807.7 C1030,808.2 1030.7,808.6 1031.4,809 C1033.4,809.6 1035.6,809.3 1037.4,808.2 C1038.2,807.8 1038,807.5 1038.4,806.7 C1038.8,805.9 1039.6,805.4 1040.3,806.1 C1040.5,806.3 1040.7,806.6 1040.7,807 C1041.4,809.3 1041.1,811.7 1041.1,814.1 C1041.1,814.5 1041.1,814.8 1041.2,815.2 C1041.4,815.6 1041.6,815.9 1041.8,816.2 C1041.9,816.3 1041.9,816.4 1041.9,816.5 C1042.7,817.5 1042.8,818.6 1042.6,819.8 Z"/>
    <path fill="#464353" fill-rule="nonzero" d="M1042.6,819.8 C1042.7,820.5 1042.5,821.2 1042.1,821.8 C1041.8,822.1 1041.4,822.3 1040.9,822.5 C1034.5,824.8 1027.2,821.9 1020.9,824.2 C1019.6,824.7 1018.4,825.3 1017.1,825.8 C1015.5,826.3 1013.9,826.6 1012.3,826.6 C1010.1,826.8 1007.8,826.9 1005.5,827 C1003.8,827.1 1002.1,827 1000.4,826.6 C998.7,826.2 997.3,825 996.5,823.5 C996.2,822.8 996.1,822 996.3,821.3 C996.4,821 996.5,820.8 996.7,820.6 C997.1,821.4 997.4,822.4 997.6,822.8 C998.2,823.9 999.3,824.7 1000.6,825 C1001.5,825 1002.4,824.9 1003.3,824.7 C1009.1,823.3 1015.2,823.2 1020.7,821.1 C1022.5,820.2 1024.4,819.5 1026.4,818.9 C1028.4,818.6 1030.5,818.4 1032.6,818.4 C1035.8,818.1 1039,817.2 1042.2,816.6 C1042.7,817.5 1042.8,818.6 1042.6,819.8 Z"/>
    <path fill="#514E7F" fill-rule="nonzero" d="M1125.3,802.6 C1125,805 1123.5,807.1 1121.8,808.8 C1120,810.4 1118.4,812.2 1116.9,814.2 C1115.2,816.7 1114.5,819.8 1112.4,822 C1111.6,822.8 1110.7,823.5 1109.7,824 C1108.6,824.7 1107.4,825.2 1106.2,825.6 C1103,826.6 1099.6,826.4 1096.2,826.1 C1095.1,826.1 1094,825.9 1093,825.5 C1092.5,825.3 1092.1,825 1091.7,824.7 C1090.9,824.2 1090.2,823.5 1089.7,822.6 C1089.5,822.1 1089.4,821.6 1089.5,821.1 C1089.7,820.5 1090,820 1090.5,819.6 C1091.3,818.8 1092.1,818.1 1092.9,817.4 C1094.1,816.6 1095.1,815.7 1096,814.6 C1096.6,813.8 1097,812.8 1097.2,811.8 C1097.7,810.1 1098,808.3 1098.1,806.6 C1098.1,805.4 1098.2,804.2 1098.5,803.1 C1099,801.3 1100.3,799.7 1100.2,797.8 C1100.1,797.5 1100.2,797.3 1100.3,797 C1100.5,796.8 1100.7,796.7 1100.9,796.6 C1102,796.2 1103.1,795.9 1104.2,795.8 C1105.3,795.7 1106.4,796.2 1107.2,797 C1107.7,797.6 1108,798.3 1108.7,798.6 C1109,798.7 1109.4,798.7 1109.7,798.6 C1111.4,798.4 1113.2,798.2 1114.5,797.1 C1115.7,796 1116.5,794.4 1116.5,792.7 C1116.5,792.1 1116.2,791.4 1117.2,791.3 C1117.9,791.2 1118.5,792 1118.9,792.5 C1120.4,794.2 1121.5,796.2 1122.1,798.3 C1122.3,798.2 1122.5,798.2 1122.7,798.2 C1123.6,798.2 1124.4,798.6 1124.9,799.3 C1125.2,800.4 1125.5,801.5 1125.3,802.6 Z"/>
    <path fill="#464353" fill-rule="nonzero" d="M1125.3,802.6 C1125,805 1123.5,807.1 1121.8,808.8 C1120,810.4 1118.4,812.2 1116.9,814.2 C1115.2,816.7 1114.5,819.8 1112.4,822 C1111.6,822.8 1110.7,823.5 1109.7,824 C1108.6,824.7 1107.4,825.2 1106.2,825.6 C1103,826.6 1099.6,826.4 1096.2,826.1 C1095.1,826.1 1094,825.9 1093,825.5 C1092.5,825.3 1092.1,825 1091.7,824.7 C1090.9,824.2 1090.2,823.5 1089.7,822.6 C1090.3,822.3 1091,822.1 1091.8,822.1 C1093.3,822.2 1094.4,823.6 1095.8,824 C1097.8,824.6 1099.8,823.2 1101.9,822.7 C1103.2,822.4 1104.7,822.5 1106,822 C1107.1,821.6 1108.1,821 1109,820.2 C1110.2,819.3 1111.3,818.3 1112.2,817.1 C1113,815.9 1113.6,814.7 1114.1,813.3 C1115.2,810.8 1116.5,808.3 1117.9,806 C1118.1,805.6 1118.4,805.3 1118.7,805 C1119,804.7 1119.4,804.5 1119.7,804.2 C1121.1,803.2 1121.6,801.4 1122.1,799.8 C1122.2,799.3 1122.4,798.8 1122.6,798.3 C1123.5,798.3 1124.3,798.7 1124.8,799.4 C1125.2,800.5 1125.4,801.6 1125.3,802.6 Z"/>
    <path fill="#A1616A" fill-rule="nonzero" d="M981.6,589 C983.3,590.3 984.7,591.9 985.7,593.8 C986.7,595.7 992.2,610.3 991.9,612.4 C993.7,610.6 1000.8,610.3 1002.6,608.5 C1003.4,607.7 1007.5,603.9 1008.1,603.1 C1008.7,602.3 1013.3,600.3 1013.8,599.4 C1015.7,596.1 1000.5,583.4 1002.5,580 C1002.6,579.8 1002.7,579.7 1002.7,579.5 C1002.7,579.3 1002.6,579.2 1002.5,579.1 C1001.2,577.9 999.7,576.9 998.1,576.1 C996.5,575.2 995.3,573.8 994.8,572.1 C993.4,572.8 992.1,573.6 990.9,574.7 C988.1,577.1 985.4,579.5 982.7,582 C981.6,583 979.6,584.3 979.1,585.7 C978.6,587.1 980.6,588.2 981.6,589 Z"/>
    <path fill="#514E7F" fill-rule="nonzero" d="M1006.1,583.6 C1003.8,585.2 1001.6,586.9 999.6,588.9 C997.7,590.7 995.9,592.9 995.5,595.5 C995.3,596.5 995.3,597.6 995.2,598.6 C994.5,603.1 990.6,606.4 988.9,610.6 C988.4,611.9 988,613.2 987.8,614.6 C987.3,617.2 987.1,619.8 987,622.5 C987,625.1 989.5,626.8 990.4,629.2 C991.2,631.6 991.7,634 992,636.5 C993,641.1 994.4,645.6 996.1,650 C999.5,659.3 1010.4,685.1 1013.8,694.5 C1024.1,691.9 1051.7,685.9 1060.9,680.5 C1064,678.7 1039.7,658.1 1043,656.7 C1043.4,656.6 1043.7,656.3 1043.9,656 C1044,655.7 1044,655.3 1043.9,655 C1040.6,640.7 1030.4,629 1025.8,615 C1024.2,610.2 1021.3,606 1019.1,601.5 C1017.1,597.3 1016.1,592.7 1013.7,588.8 C1013.2,588 1012.7,587.3 1012,586.6 C1011.4,586.2 1010.8,585.8 1010.1,585.4 C1008.7,584.6 1007.4,584.3 1006.1,583.6 Z"/>
    <circle cx="982.2" cy="571.1" r="16.2" fill="#A1616A" fill-rule="nonzero"/>
    <path fill="#464353" fill-rule="nonzero" d="M998.7 578.8C1000.4 577.3 1002.8 576.9 1004.8 577.9 1006 578.4 1006.7 579.6 1006.6 580.8L1014.6 580.9C1015.9 580.9 1017.2 581 1018.4 581.2 1019.7 581.5 1020.8 582.2 1021.6 583.2 1021.7 583.3 1021.8 583.5 1022 583.5 1022.1 583.5 1022.3 583.5 1022.4 583.4 1023.6 582.8 1025 582.5 1026.4 582.7 1030.7 583 1034.8 585.2 1038.2 587.9 1038.8 588.3 1039.3 588.9 1039.6 589.6 1039.9 590.5 1039.6 591.7 1040.3 592.3 1040.3 599.8 1042.9 606.9 1044.6 614.2 1044.9 615.5 1046.2 616.7 1047 617.7 1048.1 618.8 1049 620.2 1049.6 621.6 1051.1 625.4 1049 629.9 1050.5 633.7 1051.2 635.3 1052.2 636.7 1053.3 638 1054.6 639.6 1055.4 641.6 1055.6 643.6 1055.7 644.5 1055.5 645.4 1055.6 646.4 1055.7 647.6 1055.9 648.9 1056.3 650 1056.9 652.2 1057.5 654.4 1058.1 656.6 1059.1 660.2 1060.5 664 1063.7 665.9 1056 667.2 1047.9 668.5 1040.5 665.8 1039.5 665.4 1038.5 665 1037.6 664.3 1034.9 662.4 1033.7 659.2 1032.5 656.1 1031.2 652.7 1029.9 649.2 1029.7 645.5 1029.7 644.3 1029.5 643.2 1029.2 642 1028.4 640 1026.5 638.8 1024.7 637.7 1022.7 636.6 1020.8 635.1 1019.2 633.4 1017.6 631.7 1016.8 629.3 1017 627 1017.1 625.9 1017.6 624.8 1017.6 623.6 1017.7 622.4 1017.1 621.3 1016 620.8 1010.4 619.1 1007.7 612.5 1006.5 606.7 1006 603.7 1005.7 600.7 1005.8 597.7L1005.7 591.9C1004.1 590.5 1003.2 588.5 1003.2 586.4 1003.3 585.8 1003.3 585.2 1003.2 584.6 1002.9 583.8 1002.5 583.2 1001.9 582.6 1000.5 581.8 999.5 580.3 998.7 578.8zM981.4 597.3C981.2 599.1 981.6 601 981.2 602.7 981 603.4 980.8 604 980.6 604.7 980 607.3 980.3 609.9 981.4 612.3 982.5 614.7 983.8 616.9 985.3 619.1 985.8 619.8 986.2 620.6 986.5 621.4 986.8 622.3 986.9 623.2 987 624.1 987.4 627.7 988 631.3 988.9 634.8 989.7 637.9 990.7 641 992.7 643.4 993.1 643.9 993.6 644.3 994.3 644.5 994.8 644.5 995.2 644.4 995.6 644.2L999.7 642.6C1000.1 642.5 1000.4 642.3 1000.7 642.1 1001.1 641.6 1001.3 641.1 1001.3 640.5 1001.6 637.2 1000.6 633.8 999.5 630.7 996.1 621.2 991.7 612 989.5 602.1 988.9 599.3 988.6 595.1 986.6 592.9 985.8 592 986.1 592.4 985.1 592.9 984.6 593.1 984.1 593.4 983.6 593.7 982.3 594.5 981.5 595.9 981.4 597.3z"/>
    <path fill="#FEE934" fill-rule="nonzero" d="M993.9,615.4 C995,621.2 996.1,627 997.3,632.9 L1013.4,628.7 C1013.5,627 1012.6,625.5 1012,623.9 C1010.5,620.2 1010.5,616.1 1009.3,612.4 C1008.4,609.5 1006.8,606.9 1006,604 C1005.5,602.3 1005.3,600.6 1004.8,598.9 C1004.3,597.2 1003.6,595.6 1002.9,594 C1002,591.7 1000.8,589.5 999.4,587.5 C997.3,588.3 995.2,589.2 994,591 C993.4,592.1 993,593.2 993,594.5 C992.7,598.1 994,601.7 993.6,605.3 C993.1,608.5 993.2,612 993.9,615.4 Z"/>
    <path fill="#464353" fill-rule="nonzero" d="M1013.6 693C1014.5 696.4 1013.2 700 1012.1 703.4 1010.5 708.5 1009.4 713.8 1008.8 719.1 1008.7 720.5 1008.5 721.8 1008 723.1 1007.4 724.2 1006.8 725.3 1006 726.3 1004.4 729.2 1004.4 732.7 1004.8 735.9 1005 738.1 1005.4 740.2 1005.8 742.3 1006.3 744.9 1007 747.6 1006.2 750.1 1007.5 749.8 1008.3 751.5 1008.3 752.8 1008.3 754.1 1007.8 755.5 1008.4 756.7 1010 757.3 1010 759.4 1009.9 761.1 1009.9 764 1010.3 766.9 1011 769.7 1013.4 781.2 1015.9 792.6 1018.6 804 1024.4 805.8 1031.2 807.7 1036.7 805.2 1037.8 804.8 1038.6 804 1039 802.9 1039.1 802.3 1039 801.7 1038.8 801.1L1036.2 791.6C1035.4 789.4 1035.1 787 1035.3 784.6 1035.6 782.8 1036.3 780.9 1035.5 779.4 1035.2 778.9 1034.7 778.4 1034.4 777.9 1033 775.9 1033.7 773.2 1033.9 770.8 1033.9 770.3 1033.9 769.7 1033.8 769.2 1033.6 768.6 1033.4 768 1033 767.4 1030.8 763.2 1029.8 758.5 1030 753.8 1030.1 753.2 1030 752.6 1029.8 752 1029.6 751.8 1029.5 751.5 1029.4 751.3 1029.3 750.9 1029.3 750.4 1029.5 750 1028.7 749.4 1028 748.8 1027.4 748 1028.8 747.1 1029.2 745.2 1028.3 743.8 1028.2 743.6 1028.1 743.5 1027.9 743.3 1028.7 743.1 1029.3 742.3 1029.1 741.5 1029 741.2 1028.9 740.9 1028.6 740.7 1028.3 740.5 1027.8 740.4 1027.6 740 1027.2 739.5 1027.5 738.8 1027.8 738.2L1029.4 735.3C1030.6 733.2 1030.9 730.5 1032.1 728.4 1033.8 725.3 1035.2 722.1 1036.3 718.8L1040.9 706.1 1044 708.8C1045 709.6 1045.9 710.6 1046.6 711.7 1047 712.8 1047.3 714 1047.4 715.2 1048.5 722.1 1052.9 728.1 1054.5 734.9 1054.7 736.4 1055.2 737.9 1056 739.3 1056.3 739.7 1056.6 740.1 1056.8 740.6 1057 741.3 1057.1 742 1057.1 742.7 1057.4 745.5 1058.9 748.1 1061.2 749.7 1062.7 750.7 1064.6 751.5 1065.4 753.1 1065.6 753.6 1065.8 754.1 1066.1 754.6 1066.8 755.5 1068.4 755.6 1068.8 756.7 1069 757.3 1068.6 758.1 1069 758.6 1069.2 758.9 1069.5 759 1069.8 759.2L1074.3 761.4C1079.3 763.9 1081.8 769.6 1085.5 773.8 1086.8 775.2 1087.9 776.6 1088.8 778.2 1090.4 781 1091.1 784.6 1093.8 786.4 1094.5 786.8 1095.2 787.3 1095.7 787.8 1096.5 788.9 1096.2 790.5 1096.3 791.9 1096.4 793.3 1097.5 795 1098.8 794.5 1098.3 796.2 1098.3 798 1098.8 799.7 1104.6 799.4 1110.2 797.1 1114.6 793.3 1115.9 792.2 1117.2 790.7 1117.2 789 1117.2 788.7 1117.1 788.4 1117 788.1 1116.7 787.8 1116.4 787.5 1116 787.3 1111.8 785 1110.6 779.8 1108.5 775.5 1106.7 771.7 1103.9 768.5 1101.6 765 1096.6 757.5 1093.3 748.4 1085.8 743.5 1084.1 742.4 1082.2 741.4 1081.4 739.6 1081 738.5 1080.8 737.5 1080.5 736.4 1080.2 735.3 1079.3 734.5 1078.2 734.4 1078.7 732.8 1078.9 731.1 1078.7 729.4 1078.7 728.7 1078.7 727.9 1078.5 727.2 1078.2 726.5 1077.8 725.7 1077.4 725.1 1075.4 721.8 1074.5 718 1074.6 714.1 1074.7 712.1 1075 710.1 1074.4 708.2 1074.1 707.2 1073.6 706.4 1073.2 705.4 1072.7 703.7 1072.4 702 1072.3 700.2L1071.9 693.6C1071.8 691.4 1071.6 689.2 1071.1 687.1 1069.7 682 1068.4 660.6 1063.7 658.2 1059 655.8 1050.9 672.3 1045.7 672.6 1043.4 672.7 1041 673.1 1038.8 673.9 1035.3 675.2 1032.3 677.7 1029.5 680.1L1019.8 688.3C1017.8 690.3 1015.8 691.7 1013.6 693zM967 553.2C969.3 550.3 972.8 548.6 976.4 548.6 980 548.6 983.6 549.5 986.8 551.2 987.7 551.7 988.8 552.2 989.8 552.4 991.5 552.7 993.4 552.3 995 553.1 997.1 554.2 997.5 557 997.3 559.3 997.1 561.6 996.7 564.2 997.9 566.1 998.3 566.7 998.7 567.3 999.1 567.9 999.5 569.1 999.4 570.5 999 571.7 998.3 570.9 997.6 570.1 997 569.2 996.3 568.4 995 567.9 994.2 568.5 993.4 569.1 993.3 570.2 993.3 571.2 993.3 572.2 993 573.3 992.1 573.7 991.3 573.8 990.6 573.5 990.1 572.9 988.5 571 989.2 567.9 987.6 566 986.7 564.9 985.2 564.4 984.4 563.2 983.8 562.3 983.6 561.1 983 560.2 982.4 559.3 981.1 558.5 980.2 559.2 979.9 559.5 979.7 559.8 979.5 560.2 978.4 561.8 976.3 562.4 974.5 561.7 973.8 561.3 973.1 561 972.3 560.8 971.3 560.7 970.3 561.3 969.8 562.1 969.3 563 969.1 564 969.1 565 969.1 566.3 969.3 567.8 968.6 568.9 968.3 569.3 967.9 569.6 967.4 569.9 966.2 570.6 964.7 571.1 963.6 570.3 962.9 569.6 962.6 568.6 962.8 567.6 963 566.6 963.3 565.7 963.6 564.8 964.2 562.7 963.4 560.3 964.1 558.3 964.8 556.4 965.8 554.7 967 553.2z"/>
    <path fill="#FEE934" fill-rule="nonzero" d="M975.6,601.5 C975.5,602 975.5,602.5 975.8,603 C976,603.3 976.3,603.6 976.6,603.8 C978.9,605.2 981.5,606.1 984.2,606.3 C984.5,606.3 984.9,606.4 985.2,606.6 C985.8,607.1 986,608 985.7,608.7 C985.4,609.4 985.2,610.2 985.2,611 C985.4,612.4 987.1,613.1 988.5,613.3 C990.5,613.7 992.6,613.3 994.3,612.2 C995.4,611.2 996.2,610 996.7,608.6 C1000.6,599.6 1002,589.6 1006,580.6 C1006.3,580 1006.5,579.4 1006.6,578.7 C1006.7,578 1006.4,577.4 1005.9,577 C1005.2,576.5 1004,576.8 1003.5,576.1 C1003.3,575.7 1003.3,575.2 1003.1,574.9 C1002.6,574.1 1001.4,574.2 1000.6,573.7 C1000,573.4 999.5,572.7 998.8,572.5 C998.1,572.5 997.4,572.8 996.9,573.3 C994.6,575.5 993.3,578.6 992,581.5 C990,586 987.7,590.3 985,594.4 C985.3,593.9 983.5,590.3 982.8,590.1 C981.6,589.9 980,592 979.3,592.8 C977.3,595.2 976,598.3 975.6,601.5 Z"/>
    <rect width="78" height="78" x="987.6" y="618.1" fill="#C2B34D" fill-rule="nonzero"/>
    <rect width="78" height="78" x="983.8" y="614.3" fill="#FFF" fill-rule="nonzero"/>
    <path fill="#FEE934" fill-rule="nonzero" d="M1023.4,640.5 L1023.4,630.3 L997.8,630.3 L997.8,676.4 L1047.7,676.4 L1047.7,640.5 L1023.4,640.5 Z M1008.1,671.2 L1003,671.2 L1003,666.1 L1008.1,666.1 L1008.1,671.2 Z M1008.1,661 L1003,661 L1003,655.9 L1008.1,655.9 L1008.1,661 Z M1008.1,650.7 L1003,650.7 L1003,645.6 L1008.1,645.6 L1008.1,650.7 Z M1008.1,640.5 L1003,640.5 L1003,635.4 L1008.1,635.4 L1008.1,640.5 Z M1018.3,671.2 L1013.2,671.2 L1013.2,666.1 L1018.3,666.1 L1018.3,671.2 Z M1018.3,661 L1013.2,661 L1013.2,655.9 L1018.3,655.9 L1018.3,661 Z M1018.3,650.7 L1013.2,650.7 L1013.2,645.6 L1018.3,645.6 L1018.3,650.7 Z M1018.3,640.5 L1013.2,640.5 L1013.2,635.4 L1018.3,635.4 L1018.3,640.5 Z M1042.7,671.2 L1023.4,671.2 L1023.4,666.1 L1028.5,666.1 L1028.5,661 L1023.4,661 L1023.4,655.9 L1028.5,655.9 L1028.5,650.8 L1023.4,650.8 L1023.4,645.7 L1042.7,645.7 L1042.7,671.2 Z M1038.2,650.7 L1033.1,650.7 L1033.1,655.8 L1038.2,655.8 L1038.2,650.7 Z M1038.2,661 L1033.1,661 L1033.1,666.1 L1038.2,666.1 L1038.2,661 Z"/>
    <path fill="#A1616A" fill-rule="nonzero" d="M1061.2,657.3 C1059.9,658.5 1058.6,659.8 1057.5,661.2 C1056.4,662.6 1055.8,664.4 1055.8,666.2 C1055.8,666.7 1056,667.2 1056.3,667.7 C1056.6,668.1 1057.2,668.3 1057.7,668.1 C1058,668 1058.2,667.7 1058.4,667.5 C1059.1,666.6 1059.9,665.8 1060.7,665 C1061,664.7 1061.4,664.4 1061.8,664.5 C1062,664.6 1062.1,664.7 1062.3,664.8 C1062.8,665.2 1063.1,665.7 1063.3,666.3 C1063.4,667.4 1063,668.5 1062.2,669.2 C1061.4,669.9 1060.8,670.8 1060.4,671.9 C1060.3,672.2 1060.3,672.5 1060.4,672.7 C1060.5,672.9 1060.7,673.1 1060.9,673.2 C1062.9,674.3 1065.3,674.4 1067.4,673.6 C1068.8,673.1 1070,672.1 1071.4,671.6 C1072,671.4 1072.6,671.2 1073.2,670.9 C1074,670.4 1074.6,669.5 1074.8,668.6 C1075,667.6 1075,666.7 1074.9,665.7 C1074.7,662 1073.9,658.3 1072.5,654.8 C1072.4,654.6 1072.3,654.4 1072.1,654.2 C1071.9,654.1 1071.7,654 1071.4,654 C1069.6,653.8 1066.8,652.9 1065.1,653.6 C1064.5,653.9 1064,654.4 1063.6,654.9 C1063.2,655.2 1061.2,656.8 1061.2,657.3 Z"/>
    <path fill="#464353" fill-rule="nonzero" d="M1060.6,655.7 C1060.6,654 1058.5,650 1061.8,649.7 C1061.8,647.9 1059.3,646.8 1059.7,644.9 C1059.9,644.3 1060.4,643.7 1060.5,643.1 C1060.7,641.3 1057.4,640.3 1057.9,638.5 C1058.1,637.8 1058.8,637.4 1059,636.7 C1059.4,635.1 1056.5,634.4 1056.5,632.8 C1056.5,632.3 1056.8,631.7 1056.8,631.2 C1056.8,630.5 1056.2,630 1055.9,629.4 C1055.1,627.9 1055.5,625.5 1053.9,624.7 C1054.9,624.8 1055.3,623.2 1054.8,622.3 C1054.3,621.4 1053.5,620.5 1053.5,619.5 C1053.5,619.1 1053.5,618.7 1053.5,618.3 C1053.2,617.3 1051.6,617.2 1051.3,616.2 C1051.3,615.8 1051.3,615.4 1051.3,615.1 C1051.2,614.3 1050.4,613.8 1049.6,613.6 C1048.8,613.5 1048.1,613.2 1047.4,612.8 C1046.9,612.4 1046.4,611.8 1045.8,612.1 C1045.6,612.2 1045.5,612.4 1045.4,612.6 C1044.8,613.3 1043.6,613 1042.8,612.5 C1040.5,611 1039.4,608.2 1038.9,605.4 C1038.4,602.6 1038.4,599.9 1037.8,597.2 C1037.6,596.4 1037.4,595.5 1037.1,594.7 C1036.6,593.9 1036.2,593.1 1035.9,592.2 C1035.8,590.6 1039,591.7 1040.3,591.9 C1041.5,592 1042.7,592.2 1043.9,592.6 C1045.1,593.1 1046.3,593.6 1047.5,594.2 C1052.5,596.4 1058.4,596.7 1062.4,600.3 C1063.7,601.5 1064.8,603.1 1066.5,603.6 C1067.3,603.8 1068,604 1068.8,604.2 C1070.7,605.1 1071,607.6 1072,609.4 C1072.3,609.9 1072.6,610.4 1072.8,610.9 C1073,611.5 1073.1,612.2 1073.1,612.8 L1073.2,617.6 C1073.4,625.6 1073.7,633.5 1072.8,641.4 C1072.5,644 1072.1,646.7 1072.9,649.2 C1073.1,649.9 1073.4,650.5 1073.6,651.2 C1073.8,652 1073.8,652.8 1073.9,653.7 L1074,656.8 C1074,657 1074,657.3 1073.8,657.5 C1073.6,657.7 1073.3,657.8 1073,657.7 C1068.7,657.3 1064.4,654.9 1060.3,656.4"/>
    <path fill="#A1616A" fill-rule="nonzero" d="M980.9,643.2 C980.7,643.3 980.5,643.4 980.4,643.6 C979.5,644.8 979.5,646.5 980.4,647.7 C980.5,647.8 980.6,648 980.6,648.1 C980.6,648.3 980.6,648.6 980.5,648.8 C980.1,649.6 980.2,650.6 980.8,651.3 C981.1,651.6 981.5,651.7 981.7,652 C982,652.6 981.6,653.3 981.6,654 C981.7,654.9 982.8,655.3 983.6,655.4 C984.3,655.6 985,655.4 985.6,654.9 C986,654.4 986,653.7 985.6,653.1 C985.3,652.6 984.8,652.1 984.3,651.8 C985.3,651.7 986.1,651 986.2,650 C986.3,649 985.8,648.1 985.1,647.5 C984.9,647.3 984.7,647.2 984.6,647 C984.5,646.8 984.8,646.4 985,646.2 C986,645.2 986.8,642.7 984.9,642.2 C984.2,642.1 983.6,642.1 982.9,642.3 C982.4,642.5 982.4,642.7 982.1,642.9 C981.8,643.1 981.3,643 980.9,643.2 Z"/>
    <path fill="#000" fill-rule="nonzero" d="M1000.5 574.1C999.5 574.1 998.6 574.6 998 575.4 997.4 576.4 997 577.6 996.9 578.8 996.3 582.6 994.9 586.3 992.9 589.7M1004 576.9C1002.6 576.9 1001.4 577.7 1000.7 578.9 1000.2 580 1000 581.1 999.9 582.3 999.3 584.9 998.2 587.3 996.6 589.4" opacity=".1"/>
    <path fill="#FBBEBE" fill-rule="nonzero" d="M358.9,640.6 C359.5,646.9 354.7,653 356.1,659.2 C356.4,660.5 357,661.8 357.2,663.1 C357.8,666.8 355.6,670.3 353.5,673.3 L335.6,699.6 C334.9,700.8 334,701.8 333,702.8 C329.6,705.8 324.4,705.5 319.9,706.4 C316.7,707 313.7,708.4 311.1,710.3 C310.9,710.5 310.8,710.8 311,711.1 C312.5,713.2 315,714.3 317.5,714.2 C318,714.8 317.5,715.7 316.9,716.2 C315.9,716.9 314.6,717 314.4,718.7 C314.3,719.3 314.4,719.8 314.7,720.3 C315.4,721.4 316.5,722.2 317.8,722.5 C324,724.4 330.7,721.1 335.4,716.5 C340.1,711.9 343.4,706.2 348,701.6 C350.5,699.1 353.4,696.8 356,694.4 C361.2,689.5 365.2,683.4 369.1,677.4 C370.4,675.7 371.3,673.7 371.9,671.6 C372.4,669.5 372.2,667.4 372.7,665.3 C373.4,662.6 375.4,660.5 377,658.3 C380.2,653.9 382.3,648.5 381.9,643.1 C381.5,637.7 378.1,632.4 373,630.5 C371.4,629.9 369.7,629.8 368,630.2 C365.9,630.9 364.4,632.6 362.9,634.2 L359.5,638.1 C358.6,639 358,640 357.5,641.1 C357.1,642.3 357.3,643.6 358.2,644.4"/>
    <path fill="#000" fill-rule="nonzero" d="M358.9,640.6 C359.5,646.9 354.7,653 356.1,659.2 C356.4,660.5 357,661.8 357.2,663.1 C357.8,666.8 355.6,670.3 353.5,673.3 L335.6,699.6 C334.9,700.8 334,701.8 333,702.8 C329.6,705.8 324.4,705.5 319.9,706.4 C316.7,707 313.7,708.4 311.1,710.3 C310.9,710.5 310.8,710.8 311,711.1 C312.5,713.2 315,714.3 317.5,714.2 C318,714.8 317.5,715.7 316.9,716.2 C315.9,716.9 314.6,717 314.4,718.7 C314.3,719.3 314.4,719.8 314.7,720.3 C315.4,721.4 316.5,722.2 317.8,722.5 C324,724.4 330.7,721.1 335.4,716.5 C340.1,711.9 343.4,706.2 348,701.6 C350.5,699.1 353.4,696.8 356,694.4 C361.2,689.5 365.2,683.4 369.1,677.4 C370.4,675.7 371.3,673.7 371.9,671.6 C372.4,669.5 372.2,667.4 372.7,665.3 C373.4,662.6 375.4,660.5 377,658.3 C380.2,653.9 382.3,648.5 381.9,643.1 C381.5,637.7 378.1,632.4 373,630.5 C371.4,629.9 369.7,629.8 368,630.2 C365.9,630.9 364.4,632.6 362.9,634.2 L359.5,638.1 C358.6,639 358,640 357.5,641.1 C357.1,642.3 357.3,643.6 358.2,644.4" opacity=".05"/>
    <path fill="#A1616A" fill-rule="nonzero" d="M222.2,667.4 C223.2,670.6 224.2,673.7 225.4,676.8 C227.6,682.1 230.4,687.2 233.7,692 C235.8,695.1 238.1,698.1 240.6,701 C243.7,704.6 247.1,708.2 248.2,712.8 C248.8,715.5 248.6,718.3 248.9,721 C249.2,723.7 250,726.6 252.3,728.2 C254,729.2 255.9,729.9 257.8,730 C259.2,730.2 260.9,730.3 261.6,729.1 C261.9,728.6 262,728.1 262,727.5 L262.3,723.5 C262.4,722.6 262.7,721.5 263.5,721.5 C264.3,721.5 264.8,722.6 265.5,723.1 C266.6,723.7 267.9,723.3 268.4,722.2 C268.4,722.2 268.4,722.1 268.5,722.1 C268.9,721 269,719.7 268.6,718.6 C267.4,714 264.3,710.2 260.1,708 C258.6,707.4 257.3,706.7 255.9,705.8 C254.6,704.6 253.5,703.2 252.6,701.7 C245,689.2 237.4,676.7 232.1,663.2 C231,660.8 230.3,658.2 230,655.6 C229.9,652.9 230,650.3 230.3,647.6 C230.6,642.8 230.2,638 229,633.3 C228.7,632.1 228.3,630.9 227.6,629.8 C225.4,626.5 220.2,626 217,628.3 C214.6,630.2 213,633 212.8,636 C212.6,638.7 214.1,641.5 214.9,644 C217.4,651.9 219.8,659.7 222.2,667.4 Z"/>
    <path fill="#000" fill-rule="nonzero" d="M222.2,667.4 C223.2,670.6 224.2,673.7 225.4,676.8 C227.6,682.1 230.4,687.2 233.7,692 C235.8,695.1 238.1,698.1 240.6,701 C243.7,704.6 247.1,708.2 248.2,712.8 C248.8,715.5 248.6,718.3 248.9,721 C249.2,723.7 250,726.6 252.3,728.2 C254,729.2 255.9,729.9 257.8,730 C259.2,730.2 260.9,730.3 261.6,729.1 C261.9,728.6 262,728.1 262,727.5 L262.3,723.5 C262.4,722.6 262.7,721.5 263.5,721.5 C264.3,721.5 264.8,722.6 265.5,723.1 C266.6,723.7 267.9,723.3 268.4,722.2 C268.4,722.2 268.4,722.1 268.5,722.1 C268.9,721 269,719.7 268.6,718.6 C267.4,714 264.3,710.2 260.1,708 C258.6,707.4 257.3,706.7 255.9,705.8 C254.6,704.6 253.5,703.2 252.6,701.7 C245,689.2 237.4,676.7 232.1,663.2 C231,660.8 230.3,658.2 230,655.6 C229.9,652.9 230,650.3 230.3,647.6 C230.6,642.8 230.2,638 229,633.3 C228.7,632.1 228.3,630.9 227.6,629.8 C225.4,626.5 220.2,626 217,628.3 C214.6,630.2 213,633 212.8,636 C212.6,638.7 214.1,641.5 214.9,644 C217.4,651.9 219.8,659.7 222.2,667.4 Z" opacity=".05"/>
    <path fill="#3F3D56" fill-rule="nonzero" d="M374,786.2 C370.1,788.6 365.2,788.7 360.6,788.2 C359.9,788.1 359,788 358.5,788.6 C357.8,789.4 358.6,790.6 359.5,791.3 C362.2,793.3 365.4,794.6 368.7,795.1 C371.7,795.5 374.7,795.7 377.7,795.7 C385.9,795.8 394.1,796 402.2,794.8 C402.7,794.8 403.1,794.6 403.5,794.4 C404,794 404.4,793.5 404.5,792.9 C404.9,790.7 404.1,788.5 402.4,787.1 C400.7,785.7 398.8,784.7 396.7,784 L389.6,781.2 C387.9,780.5 385.2,778.8 383.4,779 C380,779.1 376.8,784.5 374,786.2 Z"/>
    <path fill="#3F3D56" fill-rule="nonzero" d="M391.9,802.9 C388.6,805.8 384.4,807.4 379.9,807.4 C378.8,807.4 377.2,807.6 377.2,808.7 C377.2,809 377.3,809.4 377.5,809.6 C378.9,811.9 381.1,813.6 383.7,814.4 C386.1,815 388.7,815.1 391.2,814.9 L398.5,814.5 C399.9,814.4 401.3,814.4 402.6,814.2 C403.9,814 405.5,813.7 406.9,813.5 C410.4,813 414,812.8 417.5,813 C418.4,813.2 419.4,812.9 420.1,812.3 C420.7,811.5 420.4,810.3 420.2,809.3 C419.8,807.2 420.2,805 419.8,802.8 C419.1,799.1 415.9,796.2 412.3,794.9 C409,793.7 403.2,792.2 400.1,794.3 C396.8,796.6 394.8,800.2 391.9,802.9 Z"/>
    <path fill="#464353" fill-rule="nonzero" d="M377.5,708.4 C374.5,712.4 371.5,716.9 372.2,721.8 C372.6,724.4 374.1,726.8 375.2,729.2 C376.6,732.5 377.6,736 378.2,739.6 C379.3,744.8 380.4,749.9 381.1,755.2 C381.9,761.1 382.1,767.1 381.7,773.1 C381.6,774.5 381.5,776.1 380.5,777.1 C380.1,777.5 379.6,777.8 379.4,778.4 C379.3,778.9 379.4,779.4 379.6,779.9 C381.4,783.7 384.6,786.6 388.5,788.1 C392.4,789.6 396.5,790.3 400.6,790.4 C401.1,790.5 401.7,790.4 402.2,790.2 C402.8,789.9 403.2,789.4 403.4,788.8 C406.4,783.1 404.7,776.2 404.8,769.8 C404.8,764.4 406.1,759.1 405.9,753.7 C405.7,749.4 404.6,745.2 404.1,740.9 C403.4,733.9 404.7,726.8 406,719.9 C407,714.6 408,709.2 409.2,704 C409.8,700.8 411,697.6 412.6,694.8 C414,692.6 415.9,690.7 417.5,688.7 C421.9,682.9 423.9,675.6 423,668.3 C422.9,667.6 412.7,670.9 411.8,671.3 C408.1,672.8 404.7,675 401.8,677.7 C399.4,679.9 397.6,682.9 395.5,685.5 C392.6,689.1 389.7,692.6 386.9,696.2 C383.8,700.1 380.6,704.2 377.5,708.4 Z"/>
    <path fill="#000" fill-rule="nonzero" d="M377.5,708.4 C374.5,712.4 371.5,716.9 372.2,721.8 C372.6,724.4 374.1,726.8 375.2,729.2 C376.6,732.5 377.6,736 378.2,739.6 C379.3,744.8 380.4,749.9 381.1,755.2 C381.9,761.1 382.1,767.1 381.7,773.1 C381.6,774.5 381.5,776.1 380.5,777.1 C380.1,777.5 379.6,777.8 379.4,778.4 C379.3,778.9 379.4,779.4 379.6,779.9 C381.4,783.7 384.6,786.6 388.5,788.1 C392.4,789.6 396.5,790.3 400.6,790.4 C401.1,790.5 401.7,790.4 402.2,790.2 C402.8,789.9 403.2,789.4 403.4,788.8 C406.4,783.1 404.7,776.2 404.8,769.8 C404.8,764.4 406.1,759.1 405.9,753.7 C405.7,749.4 404.6,745.2 404.1,740.9 C403.4,733.9 404.7,726.8 406,719.9 C407,714.6 408,709.2 409.2,704 C409.8,700.8 411,697.6 412.6,694.8 C414,692.6 415.9,690.7 417.5,688.7 C421.9,682.9 423.9,675.6 423,668.3 C422.9,667.6 412.7,670.9 411.8,671.3 C408.1,672.8 404.7,675 401.8,677.7 C399.4,679.9 397.6,682.9 395.5,685.5 C392.6,689.1 389.7,692.6 386.9,696.2 C383.8,700.1 380.6,704.2 377.5,708.4 Z" opacity=".05"/>
    <path fill="#464353" fill-rule="nonzero" d="M399.1,678 C399.7,681.1 402.7,683.4 402.8,686.5 C402.9,689 401.1,691.1 399.8,693.3 C398.6,695.5 397.6,697.8 396.7,700.2 C394.3,706.4 391.3,712.4 387.7,718.1 C386,720.8 384.1,723.8 384.5,727 C384.8,728.5 385.3,729.9 386,731.2 L391.1,741.4 C392.2,743.4 393.1,745.6 393.7,747.9 C394.2,749.8 394.2,751.9 394.5,753.8 C395.3,760.1 398.2,766.4 396.5,772.4 C396.4,772.9 395.8,773.6 395.4,773.2 C397.1,776.4 398.5,779.6 398.3,783.2 C398.2,785.1 397.7,787 398.4,788.8 C398.8,789.5 399.1,790.2 399.2,790.9 C399.2,791.4 399,791.9 398.9,792.4 C398.8,793.8 400.1,795.1 401.5,795.5 C402.9,795.9 404.4,795.9 405.8,796.3 C408.5,797.1 410.4,799.4 412.7,801 C415,802.6 417.8,803.5 420.6,803.6 C421,803.6 421.4,803.6 421.8,803.4 C422.2,803 422.4,802.5 422.4,802 C422.6,799.4 421.6,796.8 419.6,795.2 C419.2,794.9 418.8,794.5 418.6,794.1 C418.5,793.7 418.4,793.3 418.5,792.9 C418.9,787.3 418.8,781.6 418.2,776.1 C417.9,774.3 417.8,772.5 417.9,770.7 C418.2,769.2 418.3,767.7 418.3,766.2 C418,764.7 417.5,763.3 416.9,761.9 C416.1,759.4 416.3,756.6 416.3,753.9 C416,749.3 415.2,744.7 414,740.2 C413.7,738.4 413,736.7 411.9,735.3 C410.8,734.2 409.1,733.1 409.5,731.6 C409.7,731 410.1,730.6 410.5,730.1 C411.5,728.8 412,727.2 411.7,725.6 C412.6,725.8 413.6,725.4 414,724.5 C422.5,720.3 429,712.9 432.1,703.9 C432.3,703.3 432.5,702.6 432.9,702.1 C433.7,701 435,700.6 436.2,699.9 C439.9,698 442.5,694.5 444.9,691 C446.4,689.1 447.5,686.9 448.3,684.6 C448.6,683.1 448.8,681.5 448.8,680 L449,672 C449,671.5 449,670.9 448.9,670.4 C448.7,669.9 448.4,669.5 448,669.1 C445.7,666.7 442.7,665.1 439.5,664.5 C437.3,664.1 435.1,664.2 432.9,664 C428.6,663.6 424.4,662.3 420,662.6 C413.2,663.1 407.2,667.8 404,673.8 C402.7,676.2 401.5,678 399.1,678 Z"/>
    <path fill="#514E7F" fill-rule="nonzero" d="M174.7,800.5 C176.2,801 177.7,801.2 179.3,801 C179.4,799.7 181.1,799.5 182.4,799.5 C183,799.5 183.7,799.6 184.2,799.9 C184.5,800.1 184.8,800.4 185.1,800.6 C185.7,800.9 186.3,801.1 186.9,801.1 L193.5,801.7 C196.4,801.9 199.5,802.2 202.3,801.1 C202.9,800.9 203.3,800.6 203.7,800.2 C204.5,799.1 203.7,797.6 202.7,796.8 C201.7,796 200.3,795.7 199.3,794.9 C197,793.1 196.7,789.9 195.5,787.3 C194.6,785.6 193.6,784.1 192.3,782.7 C191.4,781.5 190.3,780.4 189.2,779.5 C186.6,777.6 183.5,777.6 180.4,777.3 C178.2,777.1 176.1,777 174.5,778.9 C172.6,781.3 173.3,786.2 173.4,789.1 C173.6,792.9 174,796.7 174.7,800.5 Z"/>
    <path fill="#000" fill-rule="nonzero" d="M174.7,800.5 C176.2,801 177.7,801.2 179.3,801 C179.4,799.7 181.1,799.5 182.4,799.5 C183,799.5 183.7,799.6 184.2,799.9 C184.5,800.1 184.8,800.4 185.1,800.6 C185.7,800.9 186.3,801.1 186.9,801.1 L193.5,801.7 C196.4,801.9 199.5,802.2 202.3,801.1 C202.9,800.9 203.3,800.6 203.7,800.2 C204.5,799.1 203.7,797.6 202.7,796.8 C201.7,796 200.3,795.7 199.3,794.9 C197,793.1 196.7,789.9 195.5,787.3 C194.6,785.6 193.6,784.1 192.3,782.7 C191.4,781.5 190.3,780.4 189.2,779.5 C186.6,777.6 183.5,777.6 180.4,777.3 C178.2,777.1 176.1,777 174.5,778.9 C172.6,781.3 173.3,786.2 173.4,789.1 C173.6,792.9 174,796.7 174.7,800.5 Z" opacity=".05"/>
    <path fill="#464353" fill-rule="nonzero" d="M177.4,671.8 C175.4,672.5 174.5,675 174.9,677.1 C175.3,679.2 176.5,681 177.6,682.9 C180.5,688.2 181.8,694.2 184.3,699.7 C186.2,703.8 188.7,707.6 190.5,711.7 C192.3,715.8 193.5,720.5 192.4,724.8 C191.9,726.9 190.8,728.9 190.1,731 C189.4,733.3 189,735.6 188.8,738 C187.9,746 187.7,754.1 188.3,762.2 C188.3,763.2 188.5,764.2 188.9,765.1 C189.3,765.9 190,766.7 189.7,767.6 C189.6,767.9 189.3,768.2 189.1,768.5 C188.7,769.4 189.5,770.4 190.3,771 C190,771.5 189.6,771.9 189,772 C190.1,772.7 190.7,774.1 190.3,775.4 C189.6,775.5 189.6,776.6 190,777.1 C190.4,777.6 191.1,778 191.4,778.6 C191.8,779.7 191.3,780.8 190.2,781.3 C189.2,781.7 188.1,781.8 187,781.5 C185.2,781.3 183.4,780.9 181.7,780.3 C181.1,780.2 180.6,779.9 180.1,779.5 C179.2,778.6 178.7,777.5 178.6,776.3 C178.2,773 178.1,769.6 178.2,766.3 C178.5,750.1 178.2,734 177.5,717.8 C177.2,711.3 175.3,705 172.7,699 C171.3,695.9 169.8,692.9 168.1,690 C164.5,683.3 161.3,676 162.1,668.5 C162.2,667.7 162.5,666.7 163.3,666.6 C163.6,666.6 163.9,666.6 164.2,666.8 C165.9,667.6 167.5,668.5 169.1,669.5 C171.5,670.8 174.4,671.7 177.4,671.8 Z"/>
    <path fill="#000" fill-rule="nonzero" d="M177.4,671.8 C175.4,672.5 174.5,675 174.9,677.1 C175.3,679.2 176.5,681 177.6,682.9 C180.5,688.2 181.8,694.2 184.3,699.7 C186.2,703.8 188.7,707.6 190.5,711.7 C192.3,715.8 193.5,720.5 192.4,724.8 C191.9,726.9 190.8,728.9 190.1,731 C189.4,733.3 189,735.6 188.8,738 C187.9,746 187.7,754.1 188.3,762.2 C188.3,763.2 188.5,764.2 188.9,765.1 C189.3,765.9 190,766.7 189.7,767.6 C189.6,767.9 189.3,768.2 189.1,768.5 C188.7,769.4 189.5,770.4 190.3,771 C190,771.5 189.6,771.9 189,772 C190.1,772.7 190.7,774.1 190.3,775.4 C189.6,775.5 189.6,776.6 190,777.1 C190.4,777.6 191.1,778 191.4,778.6 C191.8,779.7 191.3,780.8 190.2,781.3 C189.2,781.7 188.1,781.8 187,781.5 C185.2,781.3 183.4,780.9 181.7,780.3 C181.1,780.2 180.6,779.9 180.1,779.5 C179.2,778.6 178.7,777.5 178.6,776.3 C178.2,773 178.1,769.6 178.2,766.3 C178.5,750.1 178.2,734 177.5,717.8 C177.2,711.3 175.3,705 172.7,699 C171.3,695.9 169.8,692.9 168.1,690 C164.5,683.3 161.3,676 162.1,668.5 C162.2,667.7 162.5,666.7 163.3,666.6 C163.6,666.6 163.9,666.6 164.2,666.8 C165.9,667.6 167.5,668.5 169.1,669.5 C171.5,670.8 174.4,671.7 177.4,671.8 Z" opacity=".05"/>
    <path fill="#464353" fill-rule="nonzero" d="M150.1,652.2 C149,651.5 147.8,651.1 146.6,651.1 C145.2,651.3 143.8,652 142.8,653 C141.5,654 140.2,655.1 139,656.3 C133.9,661.7 132.2,669.4 134.5,676.4 C135.7,680 137.9,683.2 140.1,686.3 L144.5,692.6 C151.2,702.2 157.9,711.9 165,721.3 C165,721.8 165.3,722.2 165.8,722.3 C166.1,722.4 166.4,722.4 166.5,722.6 C166.6,722.7 166.6,722.9 166.6,723 C166.6,723.7 166.4,724.4 166.2,725 C166.1,725.2 166.1,725.5 166.1,725.7 C166.3,726.2 167.3,725.9 167.6,726.4 C167.8,726.7 167.6,727.2 167.3,727.4 C167,727.6 166.7,728 166.7,728.4 C166.7,728.8 167.4,729.2 167.4,729.7 C167.4,730 167.2,730.2 167,730.4 C166.5,731.1 166.6,732.1 167.2,732.7 C167.7,737.3 165.2,741.7 164.7,746.2 C163.9,753.4 167.2,760.5 167.6,767.7 C167.6,768.5 167.7,769.3 168,770.1 C168.7,771.3 170.4,772.1 170.4,773.5 C170.3,774.1 170.1,774.7 169.9,775.2 C169.9,776 170,776.9 170.2,777.7 C170.2,778.5 169.5,779.5 168.7,779.2 C169.3,781.1 169.8,783.1 170.2,785 L185.6,786.3 C185.8,784.9 185.7,783.5 185.5,782.1 C185.2,780.6 184.5,779.2 184.2,777.8 C183.7,776.3 184,774.7 184.8,773.5 C184,773.5 183.2,772.9 183.1,772.1 C183,771.3 183,770.5 183.1,769.7 C183.5,765.7 181.8,761.7 181.9,757.7 C182,754.5 183.1,751.5 183.6,748.4 C184.8,741.7 183.5,734.5 186.5,728.4 C188.3,724.7 190.8,720.6 188.8,717.1 C187.8,715.3 186,714.1 184.9,712.5 C184,710.9 183.3,709.3 182.8,707.5 C180.4,700.1 176.6,693.3 173.2,686.4 C172.3,684.7 171.6,682.8 171.1,680.9 C170.9,679.2 170.8,677.5 170.9,675.8 C170.9,672.7 170.7,669.7 170.3,666.6 C170.2,665.3 169.8,664 169.2,662.8 C168.5,661.9 167.7,661.2 166.8,660.6 C161.6,657 155.5,655.1 150.1,652.2 Z"/>
    <path fill="#514E7F" fill-rule="nonzero" d="M168.5,806.2 C170,806.7 171.5,806.9 173.1,806.7 C173.2,805.4 174.9,805.2 176.2,805.2 C176.8,805.2 177.4,805.3 178,805.6 C178.3,805.8 178.6,806.1 178.9,806.3 C179.5,806.6 180.1,806.8 180.7,806.8 L187.3,807.4 C190.2,807.6 193.3,807.9 196.1,806.8 C196.6,806.6 197.1,806.3 197.5,805.9 C198.3,804.8 197.5,803.3 196.5,802.5 C195.5,801.7 194.1,801.4 193.1,800.6 C190.8,798.8 190.5,795.6 189.3,793 C188.4,791.3 187.4,789.8 186.1,788.4 C185.2,787.2 184.2,786.1 183,785.2 C180.3,783.3 177.3,783.3 174.2,783 C172,782.8 169.9,782.7 168.3,784.6 C166.3,787 167.1,791.9 167.2,794.8 C167.4,798.6 167.8,802.4 168.5,806.2 Z"/>
    <rect width="78" height="78" x="252" y="690.2" fill="#FFF" fill-rule="nonzero"/>
    <path fill="#FEE934" fill-rule="nonzero" d="M314.1,726.6 C314.1,735.5 309.9,741.1 303.3,741.1 C299.9,741.1 297.4,739.3 296.9,736.6 L296.4,736.6 C295.3,739.4 292.5,741.1 289.5,740.9 C283.6,740.9 279.7,736.2 279.7,729.2 C279.7,722.5 283.6,717.8 289.4,717.8 C292.2,717.7 294.8,719.2 296,721.7 L296.5,721.7 L296.5,718.4 L301.3,718.4 L301.3,734 C301.1,735.5 302.2,736.9 303.7,737.1 C303.9,737.1 304.1,737.1 304.3,737.1 C307.6,737.1 309.7,733.1 309.7,726.8 C309.7,716.8 302.2,710.1 291.1,710.1 C280,710.1 272.3,718.1 272.3,729.4 C272.3,740.9 280,748.3 292,748.3 C294.2,748.3 296.4,748.1 298.5,747.7 C299.5,747.5 300.5,748.2 300.7,749.3 C300.9,750.3 300.3,751.2 299.3,751.4 C296.8,752 294.3,752.2 291.8,752.2 C277.2,752.2 267.8,743.2 267.8,729.2 C267.8,715.5 277.3,706.1 291.3,706.1 C304.8,706.1 314.1,714.5 314.1,726.6 Z M284.9,729.3 C284.9,733.7 287,736.4 290.4,736.4 C294,736.4 296.2,733.6 296.2,729.3 C296.2,725 293.9,722.2 290.4,722.2 C286.9,722.2 284.9,724.9 284.9,729.3 L284.9,729.3 Z"/>
    <circle cx="236.8" cy="610.3" r="15.2" fill="#A1616A" fill-rule="nonzero"/>
    <path fill="#A1616A" fill-rule="nonzero" d="M222.4,614.8 C220.2,616.7 217.1,616.8 214.2,617.1 C208.1,617.7 202.1,619.5 196.6,622.2 C195.8,622.5 195.2,623 194.6,623.6 C194.1,624.2 193.8,625 193.6,625.8 C193.1,627.5 192.9,629.3 193,631.1 C193.2,632.8 193.7,634.5 194.5,636.1 C196.6,640.5 199.9,644.2 204,646.9 C204.7,647.4 205.5,647.8 206.3,648 C208.3,648.4 210.2,647.2 212.2,646.7 C214,646.2 215.9,646.3 217.7,646.9 C219.4,647.4 221.1,648.5 222.7,647.8 C223.7,647.2 224.5,646.3 225,645.2 C226.6,642.2 227.9,639.2 229.2,636.1 C229.6,634.9 230.1,633.7 230.7,632.6 C232.5,629.2 235.5,626.6 237.1,623.1 C237.4,622.6 237.5,621.9 237.2,621.3 C236.9,620.9 236.5,620.6 236.1,620.4 C233.8,619.1 231.8,617.5 230,615.6 C229,614.6 227.1,612 225.7,611.8 C224,611.7 223.5,613.9 222.4,614.8 Z"/>
    <path fill="#514E7F" fill-rule="nonzero" d="M222.8,645.8 C221,646.6 218.9,646.3 217,645.9 C212.1,644.9 207.1,643.8 202.5,641.7 C201.1,641.2 199.8,640.2 198.9,639 C198.3,637.9 198,636.8 197.9,635.6 L197.1,629.9 C196.8,627.9 197.3,626.1 197.4,624.1 C197.5,623.6 197.3,623.2 197.1,622.8 C196.8,622.6 196.5,622.5 196.1,622.5 C193.8,622.5 192.4,624.9 190.8,626.6 C189.9,627.5 188.8,628.3 187.6,628.8 C186.1,629.4 184.3,629.8 183.7,631.3 C183.5,631.9 183.5,632.6 183.2,633.2 C182.2,635.6 177.8,634.8 176.7,637.2 C176.4,637.9 176.4,638.7 175.9,639.3 C175.4,639.9 174.4,639.8 173.6,640 C170.4,640.5 168.9,644.2 166.2,645.9 C163.9,647.4 161,647.3 158.5,648.5 C157.2,649.3 155.9,649.9 154.5,650.5 C153,650.8 151.4,650.8 149.9,650.7 C149.6,650.7 149.2,650.8 149,651 C148.8,651.3 148.8,651.7 148.9,652 C150.4,661.8 157,670.1 166.3,673.7 C166.8,673.9 167.3,674.1 167.8,674.4 C169.2,675.4 169.4,677.7 171,678.4 C172.2,678.8 173.4,678.5 174.3,677.7 C175.2,676.9 176,676 176.7,675 C178.1,673.5 180,672.5 182.1,672.2 C184,671.9 186.1,672.1 187.6,671 C188.2,670.4 188.8,669.8 189.3,669.1 C190.4,668 191.8,667.2 193.3,666.7 C197.3,665.2 201.5,664.3 205.8,664.1 C209.8,663.9 213.9,664.2 217.7,662.9 C218.7,662.6 219.6,662.1 220.4,661.4 C221.2,660.5 221.8,659.5 222.2,658.3 C223.3,654.2 223.6,649.9 222.8,645.8 Z"/>
    <path fill="#514E7F" fill-rule="nonzero" d="M203.1,623.3 C204.2,623.2 205.4,623.3 206.5,623.3 C207.8,623.3 209.1,623 210.5,623 C214.8,623.1 218.6,625.9 219.8,630.1 C219.9,630.4 219.9,630.8 219.9,631.1 C219.8,631.4 219.5,631.7 219.1,631.6 C218.7,630.4 218.1,629.2 217.4,628.2 C216.1,626.5 214.3,625.2 212.3,624.6 C210.2,624 208.1,623.9 206,624.4 C205.1,624.6 204.3,624.8 203.4,625 L199.3,626.1 C198.5,626.3 197.8,626.5 197.1,626.8 C196.5,627 195.6,627.8 195,627.8 C194.2,627.8 194.9,627.1 195.2,626.7 C195.9,625.8 196.8,625.1 197.9,624.8 C199.5,624.1 201.3,623.6 203.1,623.3 Z"/>
    <path fill="#A1616A" fill-rule="nonzero" d="M213.4,669.1 C214.4,672.3 215.4,675.4 216.6,678.5 C218.8,683.8 221.6,688.9 224.9,693.7 C227,696.8 229.3,699.8 231.8,702.7 C234.9,706.3 238.3,709.9 239.4,714.5 C240,717.2 239.8,720 240.1,722.7 C240.4,725.4 241.2,728.3 243.5,729.9 C245.2,730.9 247.1,731.6 249,731.7 C250.4,731.9 252.1,732 252.8,730.8 C253.1,730.3 253.2,729.8 253.2,729.2 L253.5,725.2 C253.6,724.3 253.9,723.2 254.7,723.2 C255.5,723.2 256,724.3 256.7,724.8 C257.8,725.4 259.1,725 259.6,723.9 C259.6,723.9 259.6,723.8 259.7,723.8 C260.1,722.7 260.2,721.4 259.8,720.3 C258.6,715.7 255.5,711.9 251.3,709.7 C249.8,709.1 248.5,708.4 247.1,707.5 C245.8,706.3 244.6,704.9 243.8,703.4 C236.2,690.9 228.6,678.4 223.3,664.9 C222.2,662.5 221.5,659.9 221.2,657.3 C221.1,654.6 221.2,652 221.5,649.3 C221.8,644.5 221.4,639.7 220.2,635 C219.9,633.8 219.5,632.6 218.8,631.5 C216.6,628.2 211.4,627.7 208.2,630 C205.8,631.9 204.2,634.7 204,637.7 C203.8,640.4 205.3,643.2 206.1,645.7 C208.5,653.6 211,661.4 213.4,669.1 Z"/>
    <path fill="#464353" fill-rule="nonzero" d="M259,599.5 C259.1,598.2 258,597.1 256.7,596.3 C255.3,595.6 254,594.8 252.8,593.9 C251.6,592.9 251,591.6 249.9,590.6 C248.6,589.6 247.1,588.9 245.5,588.4 C242.1,587.2 238.6,586.6 235,586.5 C231.5,586.4 228,587.3 224.9,589.2 C224.2,589.6 223.7,590.2 223.2,590.8 C222.8,591.6 222.5,592.4 222.4,593.3 C221.7,596 220.9,598.7 219.8,601.3 C218.7,604.2 217.5,607.2 214.8,609.4 C211.9,611.8 207.6,613.2 205.7,616 C205.3,616.5 205.1,617.2 205.3,617.8 C205.6,618.5 206.4,619 207.2,619.5 C211.8,622.2 215.8,625.6 217.9,629.7 C220.1,633.8 219.7,638.7 217,642.5 C215.9,643.9 214.4,645.6 215.5,647 C217.1,649.1 222.6,647.9 223.8,650.2 C224.1,651 224.1,651.8 224,652.5 C224,654.9 226.3,657 229.1,658.1 C232,659.1 235.1,659.6 238.2,659.6 C239,657.7 239.1,655.6 238.4,653.7 C238.2,653.3 238.1,652.8 238.2,652.4 C238.4,651.9 238.8,651.4 239.2,651.1 C242.6,647.9 241.8,643.3 239.8,639.5 C237.8,635.7 234.7,632.3 233.5,628.4 C232.9,626.4 232.9,624.2 234.5,622.6 C235.4,621.8 236.4,621.1 237.4,620.5 C239.2,619.3 240.6,617.5 241.4,615.5 C242.3,612.9 242.2,609.8 244.9,608 C247.6,606.2 251.2,606.8 254.1,605.7 C256.2,604.7 258.8,601.3 259,599.5 Z"/>
    <circle cx="344.5" cy="604.9" r="16.6" fill="#FBBEBE" fill-rule="nonzero"/>
    <path fill="#FBBEBE" fill-rule="nonzero" d="M359.4,604.2 C362.5,609.2 367.5,612.6 373.2,613.9 L372,618.4 C369.8,626.2 367.4,634.5 361.4,639.9 C361.9,637.2 361.3,634.4 359.7,632.1 C358.1,629.9 356.2,627.9 354.1,626.2 L344.5,617.9 C344.2,617.7 344,617.4 343.8,617.1 C343.6,616.5 343.6,615.9 343.8,615.3 C345,611.5 348.5,609.1 351.3,606.6 C352.7,605.3 354,603.8 355.1,602.2 C357,599.4 358.2,602.2 359.4,604.2 Z"/>
    <path fill="#3F3D56" fill-rule="nonzero" d="M361.6,625.7 C361.7,626.9 361.5,628.2 361.1,629.4 C360.6,630.6 359.3,631.2 358.1,630.9 C358.5,630.1 357.5,629.2 356.7,629.3 C355.8,629.5 355.1,630.1 354.8,630.9 C354.2,632 354,633.4 354.3,634.6 C354.6,636.2 355.5,637.7 355.2,639.3 C355,640.6 354,641.9 354.6,643.1 C354.9,643.7 355.4,644.2 355.8,644.6 C357.2,646.3 357,648.9 355.3,650.4 L368.3,650.6 C367.8,652.8 368.8,655 369.9,656.9 C376.2,667.6 387.2,674.8 399.5,676.2 C398.3,676.9 397.9,678.5 398.6,679.7 C398.7,679.8 398.8,680 398.9,680.1 C400,681.1 401.7,681 403.1,680.3 C404.4,679.5 405.5,678.6 406.7,677.6 C408.8,676.1 411.4,675.4 414,675.6 C415.6,675.8 417.2,676.3 418.8,676.4 C423.6,676.7 427.7,673.2 432.3,671.8 C435.7,670.8 439.5,670.8 442.3,668.7 C443.5,667.8 444.5,666.3 444.2,664.8 C443.9,664 443.4,663.2 442.8,662.5 C441.2,660.4 440.2,657.9 439,655.5 C436.7,650.8 433.5,646.5 429.6,643 C426.7,640.4 423.6,638.1 420.3,636 C419.5,635.4 418.7,634.9 417.8,634.5 C416.6,634.1 415.5,633.6 414.4,633.1 C412.9,632.1 412,630.4 410.8,629.1 C408.2,626.1 404.3,624.7 401.1,622.4 C399,620.8 397.1,618.7 394.6,618 C393.4,617.6 392.1,617.6 390.8,617.2 C388,616.4 386,613.9 383.2,612.9 C381,612.1 378.6,612.3 376.3,612 C373.8,611.7 371.3,610.8 369.2,609.3 C368.5,608.7 367.7,608.3 366.9,608 C363.4,607 363.1,613.4 362.8,615.7 C362.4,619 361.6,622.3 361.6,625.7 Z"/>
    <path fill="#FBBEBE" fill-rule="nonzero" d="M365,647.4 C365.6,653.7 360.8,659.8 362.2,666 C362.5,667.3 363.1,668.6 363.3,669.9 C365.9,676.503649 378.2,674.4 378.7,672.3 C379.4,669.6 381.4,667.5 383,665.3 C386.2,660.9 388.3,655.5 387.9,650.1 C387.5,644.7 384.1,639.4 379,637.5 C377.4,636.9 375.7,636.8 374,637.2 C371.9,637.8 370.4,639.6 368.9,641.2 L365.5,645.1 C364.6,646 364,647 363.5,648.1 C363.1,649.3 363.3,650.6 364.2,651.4"/>
    <path fill="#3F3D56" fill-rule="nonzero" d="M374,621.5 C371.6,621.6 369,621.9 367.4,623.5 C366.7,624.3 366.1,625.2 365.7,626.1 C364.1,629.4 362.5,632.8 362.4,636.5 C362.3,639.4 363.2,642.3 363.6,645.2 C364,647.6 363,650.1 362.8,652.5 C366.1,651.6 369.2,650.4 372.2,648.9 C373.9,647.8 375.8,646.8 377.7,646 C380.5,645.1 385.2,646.7 387.9,648 C388,646.1 386.6,642.8 386.8,641 C386.8,640.2 387,639.4 387.2,638.7 C387.6,637.9 388.1,637.2 388.6,636.5 C390.7,633.1 390.4,628.7 387.8,625.7 C385.4,623 381.7,622 378.2,621.6 C376,621.3 373.7,621.3 371.5,621.4"/>
    <path fill="#464353" fill-rule="nonzero" d="M322.6,588.2 L322.2,585.1 C324.8,585.8 327.3,583.6 329,581.2 C330.7,578.8 332.2,576.2 334.8,575.2 C337.9,574 341.2,575.9 344.2,577.4 C347.5,579.3 351.2,580.5 355,581 C355.6,581 356.2,581.1 356.8,581.3 C358.7,582 359.7,584.4 359.9,586.6 C360.1,588.8 360.1,591.1 361,593.1 C361.7,594.6 363,595.7 363.7,597.1 C365.7,601 363.8,606.4 365.9,610.3 L360.6,605.4 C360.1,604.9 359.4,604.5 358.9,604.9 C358.4,605.3 358.4,605.9 358.3,606.4 C357.7,607.8 356,608.5 354.6,607.8 C354.6,607.8 354.5,607.8 354.5,607.7 C353.2,606.9 352,605.9 351.1,604.6 C348.9,601.8 346,599.6 342.6,598.2 C339.7,597.1 336.4,597.3 333.6,598.7 C331.1,600.1 329.3,603.4 326.2,603.5 C322,603.7 320.3,595.9 318.3,592.8 C319.8,591.7 320.2,589.7 319.4,588.1 C319.8,588 322.5,587.7 322.6,588.2 Z"/>
    <path fill="url(#roadmap-a)" fill-rule="nonzero" d="M771.5,871.5 C770.7,868.1 770.2,865.1 770.2,865.1 C770.3,862.8 769.8,860.6 768.7,858.6 L768.7,857.7 L768.7,857.7 L768.7,850.8 C769.2,849.5 769.8,848.3 770.4,847.2 C771.6,845 770.4,837.1 770.4,837.1 C770.4,837.1 765.8,825.9 766.9,818.8 C768,811.7 757.5,787.3 757.5,787.3 C757.6,784.9 757.9,782.6 758.5,780.3 C758.6,779.8 758.7,779.3 758.6,778.8 C758.6,778.7 758.6,778.7 758.6,778.6 L758.6,778.7 C758.4,774 754.7,765.2 754.7,765.2 L755.2,748.5 C755.2,748.5 757.6,738.6 753.7,725.4 C752.4,720.8 751.5,717.1 750.9,714.2 C750.8,713.9 750.8,713.6 750.7,713.3 C758.6,712.1 764.7,711.1 764.7,711.1 C764.7,711.1 760.1,691.9 757,688.5 C753.9,685.1 751.4,674.5 751.4,674.5 C751.4,674.5 749.8,660.9 752.4,656.9 C755,652.9 755.4,646.1 755.4,646.1 C755.4,646.1 761.4,641.8 762.1,639.8 C763.2,637.1 763.8,634.2 764.1,631.3 C764.1,629 763.3,627 763.6,625.8 C763.9,624.6 761.9,620 762.9,617.9 C763.2,617.2 763.3,616.5 763.3,615.8 C763.3,615.8 763.3,615.8 763.3,615.7 L763.3,615.7 C763.3,613.8 763.1,611.9 762.8,610 C761.1,608.5 759.1,607.5 756.9,606.8 L756.8,606.3 L756.5,605 C756.3,604.9 756.1,604.8 755.9,604.7 L755.9,604.2 L755.9,602.2 L756.8,597.8 C758.6,590.2 748.4,589 748.4,589 C747.8,587.8 746.8,586.9 745.5,586.5 C743.5,585.8 745.2,598 746.1,598.8 C746.8,599.4 749.1,603.2 750.1,605.1 L750.1,605.1 L750.3,605.4 C750.1,605.5 750,605.7 749.8,605.9 L750.2,608.6 L750.3,609 C749.6,609.8 749.1,610.8 748.7,611.8 C748.7,611.8 750.6,613.8 750.2,616.1 C750.1,617.9 750.3,619.7 750.8,621.4 C750.7,621.3 749.4,619.9 748.1,620.2 C746.8,620.5 743.1,621.6 743.1,621.6 C743.1,621.6 740.4,622.1 740.6,622.7 C740.8,623.3 738.7,625.9 738.7,625.9 L731.4,618.9 C731.3,618.7 731.2,618.5 731.2,618.3 C730.9,617.3 730.7,616.3 730.6,615.3 C731.4,615.1 732.2,614.9 732.9,614.5 C733.7,614.2 734.3,613.8 734.9,613.2 C735.5,612.2 735.9,611.2 736.1,610 C736.7,607.9 737.9,606 738.8,603.9 C740.3,600.5 740.8,596.7 740.2,593 C740.1,591.9 739.7,590.8 739.1,589.8 C737.9,588.1 735.7,587.5 734.1,586.2 C732.5,584.9 731.5,582.9 729.6,581.9 C727.8,581.1 725.9,581 724,581.4 C720.3,582 716.8,583.3 713.6,585.2 C712.5,585.8 711.4,586.6 710.1,586.4 C709.1,586.1 708.2,585.4 707.6,584.6 C707.6,584.6 707.6,584.5 707.6,584.5 L707.5,584.4 C706.7,586.1 706.3,588 706.4,589.9 C706.4,590.2 706.4,590.5 706.4,590.8 C706.4,590.9 706.4,591 706.4,591.1 C706.4,591.2 706.4,591.3 706.4,591.4 L706.4,591.4 C706.4,591.5 706.4,591.7 706.3,591.8 C706.1,592.2 705.9,592.5 705.6,592.8 C705.4,593 705.2,593.3 705,593.6 C705,593.5 705.1,593.4 705.1,593.3 C704.6,594 704.4,594.8 704.3,595.6 C704.3,596.2 704.5,596.8 704.9,597.3 C705.3,597.7 705.7,598 706.1,598.3 C706,599.1 705.9,599.9 705.9,600.7 C705.9,605.7 708.6,610.3 712.8,612.8 L713,613.4 C714.1,615.9 714.5,618.7 714.3,621.4 C714.3,621.6 714.3,621.8 714.2,622 L713.9,622.3 L713.9,622.3 C713.9,622.3 701.8,622.4 698.9,619.8 C696,617.2 691.7,626.1 691.7,626.1 C691.7,626.1 687.4,626.9 686.5,626.1 C685.6,625.3 680.5,626 680.5,626 C678.4,624.2 675.7,623.2 672.9,623.2 C671.2,621.9 669.3,620.9 667.3,620.1 L667.3,620.1 L667.2,620.1 L667.2,620.1 C666.3,619.8 665.4,619.7 664.5,619.8 C664.5,619.8 658.5,614.9 656.8,612.2 C655.1,609.5 646.8,599.7 646.7,599.7 L646.7,599.2 L646.6,597.8 C646.4,597.8 646.1,597.9 645.9,597.9 C645.9,597.7 645.8,597.6 645.7,597.4 C645.2,596 644.6,594.7 643.9,593.4 C643.9,593.4 643.9,591.6 644.4,591.2 C644.9,590.8 644.2,584.1 644.2,584.1 C644.2,584.1 638.8,571.5 634,580.9 C634,580.9 624.9,587 632.5,594 C632.5,594 635.5,595.5 636,596.6 C636.3,597.4 637.3,599.5 638,600.9 L638.3,601.5 L638.2,601.6 L638.3,602.8 L638.3,603.3 C636.9,604.1 635.9,604.9 636.1,605.5 C636.5,606.5 636.8,607.6 637,608.7 C637,608.7 647.6,621.9 648.9,627.6 C648.9,627.6 677.2,644.4 686.6,645.6 L685,654 C684.8,656.3 684.6,658.6 684.6,660.9 C684.7,662.7 683.5,670.9 683.5,670.9 C683.5,670.9 681.9,682.9 680.5,684.6 C679.1,686.3 679.4,693.5 679.4,693.5 C679.1,697 678.5,700.4 677.5,703.7 C676.1,708.3 677.1,713.9 677.1,713.9 C677.1,713.9 672.4,724.7 683.7,717.4 C683.7,717.4 689.2,717.1 695.7,716.8 C695.7,717 695.7,717.2 695.7,717.4 C695.7,718.2 695.7,719.1 695.7,720.1 C695.6,726.3 695.6,734.9 695.9,741.3 C696.4,752.7 699.9,775.3 699.9,775.3 L699.9,786.7 C699.7,787.8 699.6,788.9 699.6,789.9 C699.5,793.9 700.6,797.9 702.7,801.3 L703.6,808.9 C703.6,808.9 705.6,813.9 705.7,816.9 C705.7,817.1 705.7,817.4 705.6,817.6 C705.5,818 705.5,818.4 705.5,818.8 C705.4,822.2 707.5,830.5 707.5,830.5 C707.5,830.5 707.6,838.8 708.9,839.3 C710,839.7 707.5,844.1 706.7,845.3 C706.7,845.2 706.7,845.1 706.7,845.1 C706.6,845.3 706.5,845.3 706.5,845.3 C706.2,846 706.1,846.7 706.1,847.4 C706,848.6 706.5,849.7 707.5,850.3 C709.9,851.8 711.1,853 709.1,853.4 C708.4,853.5 707.6,853.7 706.9,853.9 C706.9,853.8 706.8,853.7 706.8,853.6 C706.3,853.8 705.9,854.4 706,855 C706,856 706.3,856.9 706.8,857.8 C707.7,860 708.8,862 710.2,863.9 L711.2,863.8 C711.1,864.2 710.9,864.5 710.6,864.8 C710.2,865.3 709.8,865.7 709.2,866 C708.7,866.3 708.1,866.5 707.5,866.6 C706.1,866.6 704.9,867.3 704,868.3 C702.8,869.9 702,872.1 704.4,874 L713.3,877.1 C713.3,877.1 728.6,879.1 727.8,875.7 C727,872.3 726.5,869.3 726.5,869.3 C726.6,867.2 726.1,865.1 725.3,863.2 C725.1,862.9 725,862.6 724.8,862.3 L725.3,862.2 C725.3,862.2 726.4,854.6 727.9,853.2 C728.2,852.9 728.3,852.6 728.2,852.4 C728.4,852 728,851.7 727.5,851.6 L727.4,851.9 C726.9,851.8 726.4,851.7 725.9,851.7 C725.9,851.7 725.4,847.7 727,846.3 C727.3,846 727.4,845.5 727.3,845.1 C727.3,844.6 727.3,844 727.1,843.5 L727,843.6 C726.1,840.4 724.9,837.3 723.4,834.3 C723.4,834.3 723.3,830.7 724.3,829.2 C725.3,827.7 724.2,809.6 724.2,809.6 C724.2,809.6 724.6,800.8 723.4,796.7 C722.2,792.6 724.8,787.8 724.8,787.8 L724.8,787.5 L724.8,787.4 C724.8,787.4 724.7,786.9 724.6,786 L724.6,786.1 C724.4,783.8 723.9,779.6 723.5,777.6 C723,774.8 723.6,761.6 723.6,761.6 L725.8,755.9 L729.8,765.6 L734,778.6 C735.2,780.2 735.9,782.1 736.2,784.1 C736.2,784.2 736.2,784.4 736.2,784.5 C736.2,784.8 736.2,785.1 736.2,785.4 C736.1,787 736.6,788.7 737.5,790 C737.5,790 738.6,796.1 740.4,797.7 C742.2,799.3 742.1,802.3 742.1,802.3 C742.1,802.3 744.2,811.2 745.2,812.8 C746,814.1 746.1,817.7 746.1,818.8 L746.1,818.8 L746.1,819.1 C746.1,819.1 746.4,822.3 746.4,825 C746.4,825.3 746.4,825.7 746.4,826 L746.4,825.9 C746.4,826.6 746.3,827.4 746.1,828.1 L746.1,828.2 C746.1,828 746.1,827.9 746.1,827.7 C745.7,829.5 745.4,831.4 745.5,833.2 C745.4,836.4 745.9,840.2 747.9,842.4 C751.3,846.2 753.4,845.8 753.4,845.8 C753.4,845.8 751.8,850.6 749.8,851.6 C749.7,851.6 749.7,851.7 749.6,851.7 C749.6,851.6 749.6,851.5 749.6,851.4 C749.2,851.9 749,852.5 749,853.2 C749.1,855.8 749.9,858.3 751.5,860.3 C752,860.8 752.5,861.1 753.2,861.3 L752.9,861.5 C752.7,861.6 752.4,861.7 752.2,861.8 C751.9,861.9 751.5,862 751.2,862.1 C749.8,862.1 748.6,862.8 747.7,863.8 C746.5,865.4 745.7,867.6 748.1,869.5 L757,872.6 C757.1,872.9 772.2,875 771.5,871.5 Z"/>
    <path fill="#2D293D" fill-rule="nonzero" d="M713.1 877.2L704.5 874.1C702.1 872.2 702.9 870 704.1 868.4 704.9 867.4 706.2 866.7 707.5 866.7 708.1 866.6 708.6 866.4 709.2 866.1 709.7 865.8 710.2 865.4 710.6 864.9 711.2 863.9 711.6 862.8 711.6 861.6 711.6 861.6 721.1 858.8 723.6 861.6 724.1 862.1 724.4 862.7 724.8 863.3 725.7 865.2 726.1 867.3 726 869.4 726 869.4 726.5 872.4 727.3 875.8 728.1 879.2 713.1 877.2 713.1 877.2zM755.2 873L746.6 869.9C744.2 868 745 865.8 746.2 864.2 747 863.2 748.3 862.5 749.6 862.5 749.9 862.5 750.3 862.4 750.6 862.2 750.8 862.1 751 862 751.3 861.9 753.7 860.6 753.6 857.3 753.6 857.3 753.6 857.3 763 854.5 765.6 857.3 765.9 857.7 766.2 858.1 766.5 858.5 767.5 860.5 768 862.8 768 865 768 865 768.5 868 769.3 871.4 770.1 874.8 755.2 873 755.2 873z"/>
    <path fill="#000" fill-rule="nonzero" d="M723.5 861.5C724 862 724.3 862.6 724.7 863.2L724.7 863.2 710.5 864.8C711.1 863.8 711.5 862.7 711.5 861.5 711.5 861.5 720.9 858.8 723.5 861.5zM766.5 858.5L766.5 861.2C764.3 864.8 753.7 864 750.6 862.2 750.8 862.1 751 862 751.3 861.9 753.7 860.6 753.6 857.3 753.6 857.3 753.6 857.3 763 854.5 765.6 857.3 765.9 857.7 766.2 858.1 766.5 858.5z" opacity=".1"/>
    <path fill="#464353" fill-rule="nonzero" d="M768.2,847.1 C767.5,848.3 767,849.5 766.5,850.7 L766.5,860.2 C764.1,864.2 751.6,862.9 749.9,860.7 C748.2,858.5 746.4,852.9 748.3,851.9 C750.2,850.9 751.8,846.1 751.8,846.1 C751.8,846.1 749.8,846.6 746.5,842.7 C743.2,838.8 744.2,830.3 744.8,828.3 C745.4,826.3 744.8,819.4 744.8,819.4 C744.8,819.4 744.9,814.6 744,813 C743.1,811.4 741,802.5 741,802.5 C741,802.5 741,799.5 739.3,797.9 C737.6,796.3 736.5,790.2 736.5,790.2 C735.5,788.7 735.1,786.8 735.3,785 C735.7,782 733.3,778.7 733.3,778.7 L729.2,765.7 L725.4,755.9 L723.2,761.6 C723.2,761.6 722.6,774.8 723.1,777.6 C723.6,780.4 724.3,787.7 724.3,787.7 C724.3,787.7 721.9,792.5 723,796.6 C724.1,800.7 723.7,809.5 723.7,809.5 C723.7,809.5 724.8,827.7 723.8,829.1 C722.8,830.5 723,834.1 723,834.1 C723,834.1 727.9,844.7 726.4,846.1 C724.9,847.5 725.3,851.5 725.3,851.5 C725.3,851.5 728.7,851.5 727.2,852.9 C725.7,854.3 724.7,861.9 724.7,861.9 L710.1,863.7 C708.8,861.8 707.7,859.7 706.8,857.6 C704.9,853.1 707.2,853.6 709.1,853.1 C711,852.6 709.8,851.4 707.5,850 C705.2,848.6 706.5,845.3 706.5,845.3 C706.5,845.3 710,839.4 708.8,838.9 C707.6,838.4 707.5,830.1 707.5,830.1 C707.5,830.1 705.1,820.2 705.7,817.6 C706.3,815 703.8,808.6 703.8,808.6 L703,801 C700.4,796.7 699.5,791.6 700.4,786.7 L700.4,775 C700.4,775 697,752.4 696.5,741 C696.2,733.7 696.3,723.7 696.4,717.5 C696.5,714 696.5,711.7 696.5,711.7 L748.5,706.3 C748.6,708.9 748.9,711.5 749.5,714 C750,716.8 750.9,720.5 752.2,725.2 C755.9,738.4 753.7,748.3 753.7,748.3 L753.2,765 C753.2,765 757.8,776.2 756.8,780 C756.2,782.3 755.9,784.6 755.8,787 C755.8,787 766,811.4 765,818.5 C764,825.6 768.4,836.7 768.4,836.7 C768.4,836.7 769.4,845 768.2,847.1 Z"/>
    <path fill="#000" fill-rule="nonzero" d="M738.4,784.4 L754.2,782.3 C754.2,782.3 745.3,791.4 738.4,784.4 Z" opacity=".05"/>
    <path fill="#000" fill-rule="nonzero" d="M752 766.8C752 766.8 752.5 772.4 749.1 774.5 749.1 774.5 755.2 773.6 752 766.8zM751 749C751 749 737.8 759.9 733 759 728.2 758.1 751 749 751 749zM718.8 789.5C718.8 789.5 708.8 791.8 708.5 795.8 708.2 799.8 718.8 789.5 718.8 789.5z" opacity=".1"/>
    <path fill="#000" fill-rule="nonzero" d="M721,839.7 C721,839.7 706.8,842.4 710.8,844.2 C714.3,845.6 717.8,846.6 721.5,847.4 C721.5,847.4 726.1,847.6 721,839.7 Z" opacity=".05"/>
    <path fill="#000" fill-rule="nonzero" d="M12 136C11.3 135.5 10.8 134.8 10.7 133.9L10.6 134.2C10.6 134.2 9.3 137.4 11.6 138.9 11.9 139.1 12.1 139.2 12.3 139.4 12.7 139.3 13.2 139.3 13.6 139.2 15.5 138.7 14.3 137.5 12 136zM30.3 135.1C30.7 134.7 30.7 133.8 30.4 132.6 29.8 133.7 29.5 134.9 29.6 136.1 29.8 135.7 30 135.3 30.3 135.1zM28.1 75.2C27.6 76.6 27.2 78.1 27.1 79.6 27.4 78.6 27.7 77.6 28.2 76.6 28.2 76.6 28.2 76 28.1 75.2zM60.6 68.9C60.7 68.5 60.7 68 60.7 67.6 60.5 68.5 60.4 69.3 60.3 70.1 60.4 69.6 60.5 69.3 60.6 68.9zM27.8 118C28.1 117.1 28.2 116.2 28.2 115.3 27.8 116.4 27.5 117.5 27.5 118.7 27.5 118.4 27.6 118.2 27.8 118zM30.8 140.7C30.1 143.1 29.5 145.6 29.1 148.1L14.6 149.8C13.3 147.9 12.2 145.8 11.3 143.7 11.1 143.4 11 143 10.9 142.6 10 143 9.7 143.9 10.8 146.6 11.6 148.8 12.7 150.8 14.1 152.7L28.6 151C28.6 151 29.7 143.4 31.1 142 31.8 141.2 31.4 140.8 30.8 140.7zM11.5 119C11.5 119 11.6 127.3 12.8 127.8L12.8 127.8C13.4 126.4 13.8 125.1 13.3 124.9 12.1 124.4 12 116.1 12 116.1 12 116.1 9.6 106.2 10.2 103.6 10.8 101 8.3 94.6 8.3 94.6L7.5 87C4.9 82.7 4 77.6 4.8 72.7L4.8 61C4.8 61 1.4 38.4 1 27 .7 19.7.8 9.7.9 3.5.9 2.4.9 1.4.9.5L.5.5C.5.5.4 2.8.4 6.3.3 12.5.2 22.5.5 29.8 1 41.2 4.3 63.8 4.3 63.8L4.3 75.5C3.4 80.5 4.4 85.6 7 89.9L7.8 97.5C7.8 97.5 10.3 103.9 9.7 106.5 9.1 109.1 11.5 119 11.5 119zM54.4 146.5C53.2 144.8 52.4 142.8 52.1 140.8 50.6 142.1 52.3 147.3 53.9 149.4 55.5 151.5 68.1 152.9 70.5 148.9L70.5 146.6C67.2 149.8 56 148.5 54.4 146.5zM72.6 132.9C71.9 134.1 71.4 135.3 70.9 136.5L70.9 138.2C71.2 137.6 71.6 136.8 72.1 135.8 72.5 134.8 72.7 133.8 72.6 132.8L72.6 132.9zM55.1 134.8C55.6 133.9 56 132.9 56.3 131.9 56.3 131.9 54.3 132.4 51 128.5 48.6 125.7 48.5 120.4 48.8 117 48.2 119 47.2 127.6 50.5 131.4 52.6 134 54.2 134.6 55.1 134.8zM48.8 108.1C49 110.5 49.1 112.9 49 115.2 49.1 114.7 49.2 114.4 49.2 114.1 49.8 112.1 49.2 105.2 49.2 105.2 49.2 105.2 49.3 100.4 48.4 98.8 47.5 97.2 45.4 88.3 45.4 88.3 45.4 88.3 45.4 85.3 43.7 83.7 42 82.1 40.9 76 40.9 76 39.9 74.5 39.5 72.6 39.7 70.8 40.1 67.8 37.7 64.5 37.7 64.5L33.6 51.5 29.7 41.8 27.5 47.5C27.5 47.5 27.5 48.2 27.4 49.3L29.2 44.7 33 54.4 37.1 67.4C37.1 67.4 39.5 70.6 39.1 73.6 38.9 75.4 39.4 77.2 40.3 78.7 40.3 78.7 41.4 84.8 43.1 86.4 44.8 88 44.8 91 44.8 91 44.8 91 46.8 99.9 47.8 101.5 48.8 103.1 48.8 108.1 48.8 108.1z" opacity=".05" transform="translate(696 711)"/>
    <path fill="#FFCDD3" fill-rule="nonzero" d="M754.9,597.7 L754,602.1 L754,604.1 L754,605.5 L749,606 L748.4,605 L748.4,605 C747.4,603.1 745.2,599.3 744.5,598.7 C743.6,597.9 741.9,585.7 743.9,586.4 C745.1,586.9 746.1,587.8 746.7,588.9 C746.8,589.1 756.7,590.1 754.9,597.7 Z"/>
    <path fill="#000" fill-rule="nonzero" d="M754.1,605.5 L749.1,606 L748.5,605 L748.5,605 C749.9,603.4 752.2,603 754,604.1 L754.1,605.5 Z" opacity=".1"/>
    <path fill="#DCE6F2" fill-rule="nonzero" d="M755.4,607.9 L748.8,609.4 L748.7,608.4 L748.3,605.7 C749.8,603.7 752.7,603.3 754.7,604.8 C754.7,604.8 754.7,604.8 754.7,604.8 L755,606.1 L755.4,607.9 Z"/>
    <path fill="#FFCDD3" fill-rule="nonzero" d="M648.1,598.2 L641,602 L640.4,600.7 C639.7,599.3 638.7,597.2 638.4,596.4 C638,595.2 635,593.7 635,593.7 C627.6,586.6 636.4,580.6 636.4,580.6 C641.1,571.2 646.3,583.8 646.3,583.8 C646.3,583.8 647,590.4 646.5,590.9 C646,591.4 646,593.2 646,593.2 C646.7,594.5 647.2,595.8 647.7,597.2 C648,597.8 648.1,598.2 648.1,598.2 Z"/>
    <path fill="#000" fill-rule="nonzero" d="M648.1,598.2 L641,602 L640.4,600.7 C641.4,599.9 644.9,597 646.1,597.1 C646.7,597.2 647.2,597.2 647.8,597.1 C648,597.8 648.1,598.2 648.1,598.2 Z" opacity=".1"/>
    <path fill="#DCE6F2" fill-rule="nonzero" d="M648.9,600.3 L641,604.2 L640.8,602.5 L640.7,601.3 C640.7,601.3 645.3,597.3 646.7,597.5 C647.4,597.6 648.1,597.6 648.8,597.5 L648.9,598.9 L648.9,600.3 Z"/>
    <path fill="#FFCDD3" fill-rule="nonzero" d="M735.7,626.9 C735.7,626.9 701.1,630.8 707.5,628.7 C712,627.2 713.8,624.4 714.2,621.2 C714.4,618.5 713.9,615.7 712.9,613.2 C712.1,611 711,608.9 709.8,606.9 C709.8,606.9 736.3,592.3 731,605.6 C730.2,607.6 729.7,609.7 729.5,611.9 C729.3,614 729.6,616.2 730.2,618.2 C731.2,621.6 733.1,624.6 735.7,626.9 Z"/>
    <path fill="#000" fill-rule="nonzero" d="M731,605.6 C730.2,607.6 729.7,609.7 729.5,611.9 C727,614 724.3,613.9 720.8,613.9 C718.1,613.9 715.1,614.6 713,613.3 C712.2,611.1 711.1,609 709.9,607 C709.8,607 736.3,592.4 731,605.6 Z" opacity=".1"/>
    <circle cx="720.3" cy="600.5" r="14.3" fill="#FFCDD3" fill-rule="nonzero"/>
    <path fill="#000" fill-rule="nonzero" d="M735.7 626.9C735.7 626.9 701.1 630.8 707.5 628.7 712 627.2 713.8 624.4 714.2 621.2 715.9 619.3 719.4 618 721.6 617.3 723.6 616.6 725.8 616.6 727.9 617.2 728.7 617.4 729.5 617.8 730.2 618.2 731.2 621.5 733.1 624.6 735.7 626.9zM755.4 607.9L748.8 609.4 748.7 608.4C750.1 606.4 752.7 605.5 755.1 606.2L755.4 607.9zM648.9 600.3L641 604.2 640.8 602.5C643.4 601.1 646 599.9 648.8 599L648.9 600.3zM749.4 714.2C736 716.3 716.9 719.1 713.9 718.2 711.4 717.4 703.4 717.5 696.4 717.7 696.5 714.2 696.5 711.9 696.5 711.9L748.5 706.5C748.5 709 748.8 711.6 749.4 714.2z" opacity=".1"/>
    <path fill="#3F3D56" fill-rule="nonzero" d="M762.8,711 C762.8,711 718.6,718.6 713.9,717.1 C709.2,715.6 684.8,717.2 684.8,717.2 C673.8,724.5 678.4,713.7 678.4,713.7 C678.4,713.7 677.4,708 678.8,703.5 C679.7,700.1 680.3,696.7 680.6,693.3 C680.6,693.3 680.4,686.1 681.7,684.4 C683,682.7 684.6,670.7 684.6,670.7 C684.6,670.7 685.8,662.5 685.7,660.7 C685.6,658.9 686.1,653.9 686.1,653.9 L687.7,645.5 C678.7,644.3 651.2,627.5 651.2,627.5 C649.9,621.8 639.7,608.6 639.7,608.6 C639.6,607.5 639.3,606.4 638.9,605.4 C638.2,603.5 649,599.6 649,599.6 C649,599.6 657.1,609.5 658.7,612.1 C660.3,614.7 666.2,619.7 666.2,619.7 C667.1,619.6 668,619.7 668.9,620 L669,620 L669,620 C670.9,620.8 672.7,621.8 674.4,623.1 C677.1,623 679.7,624 681.7,625.9 C681.7,625.9 686.6,625.2 687.5,626 C688.4,626.8 692.5,626 692.5,626 C692.5,626 696.7,617.1 699.5,619.7 C702.3,622.3 714,622.2 714,622.2 C715.6,620.1 719.4,618.6 721.8,617.9 C723.8,617.2 726,617.2 728.1,617.8 C729,618 729.8,618.5 730.6,619 L737.7,626 C737.7,626 739.7,623.3 739.5,622.8 C739.3,622.3 741.9,621.7 741.9,621.7 C741.9,621.7 745.4,620.6 746.7,620.2 C748,619.8 749.2,621.3 749.3,621.4 C748.8,619.7 748.6,617.9 748.7,616.1 C748.8,614.5 748.3,613 747.3,611.8 C751.5,601.5 761.1,610.2 761.1,610.2 C761.1,610.2 762.2,615.9 761.2,618 C760.2,620.1 762.2,624.7 761.9,625.9 C761.6,627.1 762.4,629.1 762.4,631.4 C762.1,634.3 761.5,637.2 760.5,639.9 C759.8,641.8 754,646.1 754,646.1 C754,646.1 753.6,653 751.1,656.9 C748.6,660.8 750.1,674.5 750.1,674.5 C750.1,674.5 752.5,685.1 755.5,688.5 C758.5,691.9 762.8,711 762.8,711 Z"/>
    <path fill="#000" fill-rule="nonzero" d="M698.4 631.8C698.4 631.8 697.1 627.8 695.9 627.5 694.7 627.1 693.5 626.5 692.4 625.9L693.2 624.4C693.2 624.4 697.7 625.6 698.4 627 699.1 628.4 698.4 631.8 698.4 631.8zM674.2 623.1C674 624.3 663.3 625.4 663.3 625.4L668.7 620 668.7 620 668.8 620 668.8 620C670.8 620.7 672.6 621.8 674.2 623.1z" opacity=".1"/>
    <circle cx="643.2" cy="606.5" r="1" fill="#575988" fill-rule="nonzero"/>
    <circle cx="644.4" cy="608.5" r="1" fill="#575988" fill-rule="nonzero"/>
    <circle cx="645.7" cy="610.2" r="1" fill="#575988" fill-rule="nonzero"/>
    <circle cx="646.9" cy="612.2" r="1" fill="#575988" fill-rule="nonzero"/>
    <circle cx="760.3" cy="612.1" r="1" fill="#575988" fill-rule="nonzero"/>
    <circle cx="760.5" cy="613.8" r="1" fill="#575988" fill-rule="nonzero"/>
    <circle cx="760.5" cy="615.6" r="1" fill="#575988" fill-rule="nonzero"/>
    <path fill="#000" fill-rule="nonzero" d="M698.399724 664.4C698.3 664.3 725.4 698.5 746.5 678.7 746.5 678.8 713.2 683.3 698.399724 664.4zM682.9 682.3C682.9 682.3 699.1 682.7 700.8 687.4L700.8 692.3C699.9 692.8 698.7 692.8 697.8 692.3 696.2 691.4 686.3 686.4 682.9 688.8L682.9 682.3z" opacity=".1"/>
    <path fill="#3F3D56" fill-rule="nonzero" d="M683.2,682.3 C683.2,682.3 698.7,682.7 700.4,687.2 L700.4,691.8 C699.5,692.3 698.4,692.3 697.5,691.8 C695.9,691 686.5,686.2 683.2,688.5 L683.2,682.3 L683.2,682.3 Z"/>
    <path fill="#000" fill-rule="nonzero" d="M691.7 647C693.4 650.8 695.5 654.5 698 657.8 700.7 661.5 704.1 664.7 707.9 667.3 707.9 667.3 692 649.2 691.7 647zM686.4 628.2C686.4 628.2 689.1 639.9 696.1 643.9L686.4 628.2zM682.2 629.3C682.1 629.1 679.8 638.5 691.2 643.8 691.2 643.8 686.4 642.2 682.2 629.3zM753.1 621.5C752.9 621.5 758.7 625.2 760.3 626.9 760.3 626.9 756.6 621.3 753.1 621.5z" opacity=".1"/>
    <path fill="#2D293D" fill-rule="nonzero" d="M716.4,613.4 C716.5,614.2 716.9,614.9 717.5,615.3 C717.9,615.5 718.4,615.6 718.8,615.6 C723.2,615.9 727.7,616.1 731.8,614.4 C732.6,614.1 733.3,613.7 733.8,613.1 C734.4,612.1 734.7,611.1 734.9,609.9 C735.5,607.8 736.7,605.9 737.6,603.8 C739.1,600.4 739.5,596.6 739,592.9 C738.9,591.8 738.5,590.7 737.9,589.7 C736.7,588 734.6,587.4 733.1,586.1 C731.6,584.8 730.6,582.8 728.8,581.8 C727.1,581 725.2,580.9 723.4,581.3 C719.8,581.9 716.4,583.2 713.3,585.1 C712.3,585.7 711.1,586.5 709.9,586.3 C708.9,586 708,585.3 707.4,584.4 C706.5,586.4 706.2,588.5 706.3,590.6 C706.3,590.9 706.3,591.2 706.3,591.5 C706.1,591.9 705.9,592.2 705.6,592.5 C704.5,593.7 703.8,595.7 704.9,597 C705.4,597.5 706.1,597.8 706.5,598.4 C707.3,599.4 707,600.9 707,602.1 C707,602.5 707.1,603 707.3,603.4 C707.8,603.8 708.4,604 709.1,603.8 C709.7,603.6 710.3,603.6 711,603.6 C711.7,603.8 712.2,604.3 712.6,604.9 C714.8,607.5 715.6,610.3 716.4,613.4 Z"/>
    <path fill="#000" fill-rule="nonzero" d="M30.2 28C29.7 28.6 29 29 28.2 29.3 24.2 31 19.6 30.8 15.3 30.5 14.8 30.5 14.4 30.4 14 30.2 13.4 29.7 13 29 12.9 28.3 12.1 25.2 11.3 22.4 9.2 19.8 8.8 19.2 8.2 18.8 7.6 18.5 7 18.4 6.3 18.5 5.7 18.7 5.1 18.9 4.4 18.7 3.9 18.3 3.7 17.9 3.5 17.5 3.6 17 3.6 15.7 3.9 14.3 3.1 13.3 2.6 12.7 1.9 12.4 1.5 11.9.9 11.1.8 10 1.2 9 .4 10.2.1 11.8 1 12.8 1.5 13.3 2.2 13.6 2.6 14.2 3.4 15.2 3.1 16.7 3.1 17.9 3.1 18.3 3.2 18.8 3.4 19.2 3.9 19.6 4.5 19.8 5.2 19.6 5.8 19.4 6.4 19.4 7.1 19.4 7.8 19.6 8.3 20.1 8.7 20.7 10.7 23.3 11.5 26.1 12.4 29.2 12.5 30 12.9 30.7 13.5 31.1 13.9 31.3 14.4 31.4 14.8 31.4 19.2 31.7 23.7 31.9 27.8 30.2 28.6 29.9 29.3 29.5 29.8 28.9 30.1 28.6 30.3 28.2 30.4 27.7 30.4 27.9 30.3 28 30.2 28zM2.4 7.2C2.6 7 2.7 6.7 2.8 6.5 2.8 6.2 2.8 5.9 2.8 5.6 2.7 3.8 2.9 2.1 3.5.4L3.4.3C2.5 2.3 2.2 4.4 2.3 6.5 2.4 6.7 2.4 6.9 2.4 7.2z" opacity=".1" transform="translate(704 584)"/>
    <path fill="#000" fill-rule="nonzero" d="M713.8 622.1C713.8 622.1 731.7 624.5 733.3 621.8M748.6 614.7C748.6 614.7 758.5 614.7 760.7 618.4" opacity=".1"/>
  </g>
</svg>
