<svg xmlns="http://www.w3.org/2000/svg" width="729" height="373" viewBox="0 0 729 373">
  <g fill="none" fill-rule="evenodd">
    <rect width="729" height="373" fill="#FFF"/>
    <ellipse cx="203.452" cy="260.945" fill="#FEE539" fill-rule="nonzero" rx="19.007" ry="38.782" transform="matrix(-1 0 0 1 406.904 0)"/>
    <path fill="#0E5EB8" fill-rule="nonzero" d="M203.288136,324.424826 C210.900688,278.750987 203.364779,233.242167 203.287771,232.788182 L201.806993,233.03901 C201.883636,233.490798 209.376271,278.760522 201.806625,324.178399 L203.288136,324.424826 Z" transform="matrix(-1 0 0 1 408.495 0)"/>
    <polygon fill="#0E5EB8" fill-rule="nonzero" points="211.195 248.118 212.697 248.118 212.697 267.61 211.195 267.61" transform="scale(-1 1) rotate(-61.858 0 611.591)"/>
    <polygon fill="#0E5EB8" fill-rule="nonzero" points="184.059 261.721 203.552 261.721 203.552 263.223 184.059 263.223" transform="scale(-1 1) rotate(-28.158 0 1035.243)"/>
    <path fill="#F2F2F2" fill-rule="nonzero" d="M529.686747,141.174139 C474.319294,-9.176477 398.425735,21.0763093 387.037739,244.379933 C384.041381,303.1346 447.306518,352.321205 524.717044,354.127742 C602.12757,355.934278 665.993711,309.727434 667.366056,250.921908 C668.738402,192.116381 550.619794,198.017947 529.686747,141.174139 Z"/>
    <ellipse cx="120.069" cy="199.566" fill="#E6E6E6" fill-rule="nonzero" rx="37.176" ry="75.853" transform="matrix(-1 0 0 1 240.138 0)"/>
    <path fill="#0E5EB8" fill-rule="nonzero" d="M119.049288,323.608343 C133.918671,234.393455 119.199271,145.503472 119.04892,144.616032 L117.568142,144.86686 C117.718125,145.752111 132.394262,234.402989 117.567774,323.361915 L119.049288,323.608343 Z" transform="matrix(-1 0 0 1 243.26 0)"/>
    <polygon fill="#0E5EB8" fill-rule="nonzero" points="135.932 174.479 137.434 174.479 137.434 212.603 135.932 212.603" transform="scale(-1 1) rotate(-61.858 0 421.658)"/>
    <polygon fill="#0E5EB8" fill-rule="nonzero" points="82.139 201.802 120.264 201.802 120.264 203.305 82.139 203.305" transform="scale(-1 1) rotate(-28.157 0 606.089)"/>
    <path fill="#E6E6E6" fill-rule="nonzero" d="M523.149068,323.846694 L325.409402,323.846694 C323.895139,323.84493 322.666262,322.617817 322.666262,321.103555 L322.666262,196.155248 C322.666262,194.640957 323.895111,193.413806 325.409402,193.412108 L523.149068,193.412108 C524.66333,193.413875 525.892208,194.640986 525.892208,196.155248 L525.892208,321.103555 C525.892208,322.617789 524.663302,323.844861 523.149068,323.846694 L523.149068,323.846694 Z" transform="matrix(-1 0 0 1 848.558 0)"/>
    <path fill="#FFF" fill-rule="nonzero" d="M343.594178,208.553329 C342.945189,208.553329 342.418547,209.07997 342.418547,209.72896 L342.418547,307.530227 C342.418547,308.179216 342.945189,308.705858 343.594178,308.705858 L504.964292,308.705858 C505.613281,308.705858 506.139923,308.179216 506.139923,307.530227 L506.139923,209.72896 C506.139923,209.07997 505.613281,208.553329 504.964292,208.553329 L343.594178,208.553329 Z" transform="matrix(-1 0 0 1 848.558 0)"/>
    <rect width="166.373" height="6.197" x="342.027" y="227.546" fill="#E6E6E6" fill-rule="nonzero" transform="matrix(-1 0 0 1 850.426 0)"/>
    <rect width="166.373" height="6.197" x="342.027" y="257.844" fill="#E6E6E6" fill-rule="nonzero" transform="matrix(-1 0 0 1 850.426 0)"/>
    <rect width="69.549" height="6.197" x="414.083" y="241.318" fill="#E6E6E6" fill-rule="nonzero" transform="matrix(-1 0 0 1 897.715 0)"/>
    <rect width="166.373" height="6.197" x="342.027" y="289.865" fill="#E6E6E6" fill-rule="nonzero" transform="matrix(-1 0 0 1 850.426 0)"/>
    <rect width="6.197" height="85.491" x="480.533" y="208.161" fill="#E6E6E6" fill-rule="nonzero" transform="matrix(-1 0 0 1 967.264 0)"/>
    <rect width="6.197" height="53.126" x="364.847" y="208.161" fill="#E6E6E6" fill-rule="nonzero" transform="matrix(-1 0 0 1 735.892 0)"/>
    <rect width="6.197" height="100.936" x="411.673" y="208.161" fill="#E6E6E6" fill-rule="nonzero" transform="matrix(-1 0 0 1 829.543 0)"/>
    <rect width="6.197" height="50.22" x="447.136" y="258.877" fill="#E6E6E6" fill-rule="nonzero" transform="matrix(-1 0 0 1 900.47 0)"/>
    <circle cx="414.771" cy="261.727" r="7.919" fill="#0E5EB8" fill-rule="nonzero" transform="matrix(-1 0 0 1 829.543 0)"/>
    <polygon fill="#E6E8EB" fill-rule="nonzero" points="538.231 324.662 0 324.662 0 323.662 538.465 323.662" transform="matrix(-1 0 0 1 538.465 0)"/>
    <circle cx="413.822" cy="165.835" r="48.85" fill="#0E5EB8" fill-rule="nonzero" transform="matrix(-1 0 0 1 827.644 0)"/>
    <polygon fill="#0E5EB8" fill-rule="nonzero" points="413.981 245.245 398.548 218.882 383.115 192.518 413.663 192.335 444.21 192.151 429.096 218.698" transform="matrix(-1 0 0 1 827.325 0)"/>
    <circle cx="413.43" cy="165.527" r="17.527" fill="#FFF" fill-rule="nonzero" transform="matrix(-1 0 0 1 826.86 0)"/>
    <path fill="#2F2E41" fill-rule="nonzero" d="M419.647378,48.496364 C419.647378,48.496364 409.194602,45.5519135 406.102931,59.8324778 C403.01126,74.1130421 405.366825,81.3269344 405.366825,81.3269344 L428.701536,78.6033262 C428.701536,78.6033262 435.326551,52.8394121 419.647378,48.496364 Z" transform="matrix(-1 0 0 1 834.6 0)"/>
    <path fill="#FFB9B9" fill-rule="nonzero" d="M435.546848,110.348546 C435.546848,110.348546 420.214325,111.875597 422.945258,118.065671 C425.67619,124.255746 425.676163,124.80192 425.676163,124.80192 L439.148657,148.833953 L443.518121,144.282438 C443.518121,144.282438 438.60247,133.540845 438.60247,130.081688 C438.60247,126.62253 433.504765,120.614549 433.504765,120.614549 L442.425744,119.886312 L435.546848,110.348546 Z" transform="matrix(-1 0 0 1 866.138 0)"/>
    <path fill="#FFB9B9" fill-rule="nonzero" d="M381.655743,117.701559 L386.753448,128.807272 C386.753448,128.807272 390.576722,132.630546 394.764121,147.923654 C398.951519,163.216762 399.861822,162.670587 399.861822,162.670587 L393.489694,163.945015 C393.489694,163.945015 386.389328,147.377479 384.022528,146.103056 C381.655727,144.828633 378.742768,133.176733 378.742768,133.176733 L370.367964,122.617213 L372.916814,116.973326 L381.655743,117.701559 Z" transform="matrix(-1 0 0 1 770.23 0)"/>
    <path fill="#2F2E41" fill-rule="nonzero" d="M424.804174,104.957293 L432.632772,119.522188 C432.632772,119.522188 422.801486,114.970654 421.344985,124.984006 L412.424006,118.065691 C412.424006,118.065691 400.043873,122.071023 392.579395,120.61453 C392.579395,120.61453 394.764109,113.696218 386.935507,110.601181 L404.595399,108.416467 L403.867158,104.593189 L405.687772,100.951965 L424.804174,104.957293 Z" transform="matrix(-1 0 0 1 819.568 0)"/>
    <path fill="#2F2E41" fill-rule="nonzero" d="M419.674667,145.55687 C419.674667,145.55687 414.759016,144.828629 416.033455,149.198082 L418.582306,157.936995 C418.582306,157.936995 415.305214,166.857974 420.40292,164.85531 C425.500625,162.852646 428.777724,150.472505 428.777724,150.472505 C428.777724,150.472505 430.962439,141.005343 428.777724,141.005343 C426.59301,141.005343 419.674679,139.548861 420.40292,141.005343 C421.13116,142.461825 419.674667,145.55687 419.674667,145.55687 Z" transform="matrix(-1 0 0 1 845.571 0)"/>
    <path fill="#2F2E41" fill-rule="nonzero" d="M372.601335,160.121737 C372.601335,160.121737 366.229211,158.483193 364.772717,161.032044 C363.316224,163.580894 363.680356,171.955687 363.680356,172.137753 C363.680356,172.319819 365.865071,174.140417 366.593327,174.140417 C367.321584,174.140417 371.873087,182.33316 378.063177,179.420177 C384.253267,176.507194 372.601335,160.121737 372.601335,160.121737 Z" transform="matrix(-1 0 0 1 743.515 0)"/>
    <circle cx="416.794" cy="63.629" r="7.1" fill="#FFB9B9" fill-rule="nonzero" transform="scale(-1 1) rotate(-80.783 0 553.51)"/>
    <path fill="#FFB9B9" fill-rule="nonzero" d="M415.698539,65.0859855 C415.698539,65.0859855 417.155017,72.7325376 418.429456,73.8249027 C419.703895,74.9172679 408.780236,76.5558156 408.780236,76.5558156 C408.780236,76.5558156 410.418784,71.276056 408.416116,68.5451353 C406.413447,65.8142146 415.698539,65.0859855 415.698539,65.0859855 Z" transform="matrix(-1 0 0 1 826.666 0)"/>
    <path fill="#D0CDE1" fill-rule="nonzero" d="M425.273012,108.416463 C424.033176,108.416463 420.876238,107.903057 417.336965,107.242168 C414.274732,106.670498 410.922968,105.99141 408.279436,105.441591 C405.448399,104.851718 403.425714,104.41113 403.425714,104.41113 C403.425714,104.41113 402.697473,108.962645 400.330669,108.416463 C398.291599,107.946743 392.198044,86.6620231 390.550366,80.7796311 C390.302909,79.8970045 390.672614,78.9574946 391.45521,78.4802023 L399.824528,73.3697336 L401.969209,74.1890035 C401.969209,74.1890035 405.592218,71.3889048 407.695006,71.3324706 C409.797795,71.2760364 413.439027,70.7298499 413.439027,70.7298499 C413.439027,70.7298499 417.626425,71.0939742 418.354678,74.1890035 C419.08293,77.2840329 419.447035,96.5824849 422.177952,100.041642 C424.908869,103.5008 428.73217,108.416463 425.273012,108.416463 Z" transform="matrix(-1 0 0 1 817.124 0)"/>
    <path fill="#FFB9B9" fill-rule="nonzero" d="M410.403526,118.611854 C410.403526,118.611854 410.403526,125.712223 415.137107,124.619862 C419.870688,123.527501 415.501227,116.97331 415.501227,116.97331 L410.403526,118.611854 Z" transform="matrix(-1 0 0 1 827.743 0)"/>
    <path fill="#FFB9B9" fill-rule="nonzero" d="M410.866376,119.340106 C410.866376,119.340106 409.227828,127.714911 405.76867,126.440472 C402.309513,125.166033 405.76867,117.701547 405.76867,117.701547 L410.866376,119.340106 Z" transform="matrix(-1 0 0 1 815.098 0)"/>
    <path fill="#000" fill-rule="nonzero" d="M408.844699,99.4954834 C408.844699,99.4954834 407.06232,103.748427 405.642232,107.242168 C402.579999,106.670498 399.228235,105.99141 396.584703,105.441591 C396.774617,104.938775 397.041152,104.468355 397.374857,104.04701 C398.64928,102.590521 397.921043,102.2264 397.921043,102.2264 C396.828682,100.041686 397.738989,97.1286949 397.738989,97.1286949 C395.554274,91.3027527 398.831346,84.0203094 398.831346,84.0203094 L408.844699,99.4954834 Z" opacity=".15" transform="matrix(-1 0 0 1 805.43 0)"/>
    <path fill="#D0CDE1" fill-rule="nonzero" d="M400.590043,84.0203094 C400.590043,84.0203094 397.312952,91.302741 399.497686,97.1286949 C399.497686,97.1286949 398.587379,100.041666 399.679737,102.2264 C399.679737,102.2264 400.407977,102.590521 399.133554,104.04701 C397.859131,105.5035 396.766765,110.601193 397.677072,111.693562 C398.587379,112.785931 396.402649,114.788607 396.948832,115.88096 C397.495014,116.973314 396.038529,118.429811 396.038529,118.429811 C396.038529,118.429811 401.50035,119.522172 402.410657,121.160716 C402.410657,121.160716 403.503015,119.886293 402.95684,118.429811 C402.410665,116.97333 402.774785,116.427135 403.32096,115.51684 C403.867135,114.606545 405.505675,112.603869 405.687745,111.693562 C405.869815,110.783255 410.603396,99.4955109 410.603396,99.4955109 L408.383412,78.9251826 L400.590043,84.0203094 Z" transform="matrix(-1 0 0 1 806.642 0)"/>
    <path fill="#D0CDE1" fill-rule="nonzero" d="M412.46237,78.9226041 L412.122221,78.9844462 C411.143153,79.161988 410.433684,80.0180326 410.440915,81.0130409 C410.453933,82.8409828 410.556915,86.0850077 411.005873,90.5745041 C411.734113,97.8569357 414.282964,108.780579 414.829151,109.872952 C415.696535,111.805941 416.668978,113.69005 417.742122,115.51684 C419.380666,118.247757 419.744798,117.337454 419.380666,118.611885 C419.154378,119.328795 419.367927,120.111805 419.926852,120.614565 C419.926852,120.614565 423.203944,116.973341 426.481047,118.976017 C426.715325,118.461194 426.839353,117.903067 426.845167,117.337473 C426.845167,116.427167 427.39135,115.51686 426.481047,114.970673 C425.570744,114.424487 427.027233,112.057702 425.57074,110.783279 C424.114246,109.508855 423.932196,109.690918 424.114246,108.416482 C424.199243,107.549955 424.074351,106.6757 423.75013,105.867632 L412.46237,78.9226041 Z" transform="matrix(-1 0 0 1 837.449 0)"/>
    <path fill="#2F2E41" fill-rule="nonzero" d="M425.475052,54.5086281 C425.475052,54.5086281 422.530605,62.3114097 415.316709,65.5502971 L414.138938,58.6308495 L425.475052,54.5086281 Z" transform="matrix(-1 0 0 1 839.614 0)"/>
    <ellipse cx="409.875" cy="60.899" fill="#FFB9B9" fill-rule="nonzero" rx="1.001" ry="1.912" transform="matrix(-1 0 0 1 819.75 0)"/>
  </g>
</svg>
