<svg xmlns="http://www.w3.org/2000/svg" width="729" height="390" viewBox="0 0 729 390">
  <g fill="none" fill-rule="evenodd">
    <rect width="729" height="390" fill="#E6E8EB"/>
    <g fill-rule="nonzero" transform="translate(39.5 28)">
      <polygon fill="#F2F2F2" points="623.956 106.254 362.279 218.727 399.986 322.713 426.935 397.018 433.709 415.706 494.01 438.594 496.19 439.421 559.18 463.32 589.418 450.388 630.61 432.682 650 424.348"/>
      <path fill="#FFB8B8" d="M541.376174,176.844895 C541.376174,176.844895 533.094614,206.658508 531.438301,206.658508 C529.781989,206.658508 547.173264,229.846872 547.173264,229.846872 L572.846094,243.925517 L581.955807,205.830349 C581.955807,205.830349 573.674252,185.126456 575.330564,174.36043 L541.376174,176.844895 Z"/>
      <circle cx="554.627" cy="157.797" r="30.642" fill="#FFB8B8"/>
      <path fill="#0E5EB8" d="M558.767421,221.565311 L534.28478,200.303606 L519.844105,207.486672 L488.374181,227.362412 C488.374181,227.362412 496.655741,406.244077 492.514958,412.869326 C492.514958,412.869326 501.624672,433.573225 555.454808,421.150886 C609.284944,408.728548 623.363588,407.072236 623.363588,407.072236 L611.769404,297.755669 L625.848054,229.01873 L578.557673,195.949744 L563.736363,221.565328 L558.767421,221.565311 Z"/>
      <path fill="#FFB8B8" d="M467.670282 291.130421C467.670282 291.130421 455.247949 330.053747 464.357663 334.194525 473.467377 338.335302 480.920779 336.67899 480.920779 336.67899L494.999429 302.7246 467.670282 291.130421zM639.926704 284.505155L647.380106 319.287705 647.380106 389.68095C647.380106 389.68095 636.61408 434.401367 628.332497 422.807187 620.050914 411.213008 620.221968 407.541518 620.221968 407.541518L630.816968 391.337263 625.848032 325.084794 612.645027 293.480429 639.926704 284.505155z"/>
      <path fill="#2F2E41" d="M583.612103,127.15557 C583.612103,127.15557 573.674236,105.623518 554.626649,110.592454 C535.579062,115.561391 524.813036,123.014792 523.984883,130.468194 C523.15673,137.921596 524.398974,149.101713 524.398974,149.101713 C524.398974,149.101713 526.46936,133.78083 539.719857,137.093454 C552.970354,140.406078 573.674247,137.921607 573.674247,137.921607 L576.986871,167.73522 C576.986871,167.73522 580.713569,162.352204 584.854352,165.664828 C588.995135,168.977453 596.8626,133.780791 583.612103,127.15557 Z"/>
      <polygon fill="#3F3D56" points="612.862 291.343 615.858 306.917 645.208 299.13 639.817 284.754"/>
      <polygon fill="#3F3D56" points="467.125 290.855 462.446 306.008 492.011 312.936 494.013 297.714"/>
      <path fill="#0E5EB8" d="M606.800467 227.362401L625.848076 229.018713C625.848076 229.018713 647.380128 287.81778 644.895685 289.474092 642.411242 291.130404 612.597607 301.068271 608.456829 298.583806 604.316052 296.09934 606.800467 227.362401 606.800467 227.362401zM494.999429 229.018713L488.374181 227.362401C488.374181 227.362401 475.951842 243.097363 471.811065 261.316791 467.670287 279.536219 461.873192 297.755647 465.185816 297.755647 468.498441 297.755647 498.312053 309.349848 498.312053 309.349848L494.999429 229.018713z"/>
      <circle cx="561.948" cy="227.251" r="5.99" fill="#3F3D56"/>
      <path fill="#E6E6E6" d="M608.194437,333.157833 L544.211234,353.328588 L518.097321,270.49322 C542.751349,267.036134 564.079077,260.312551 582.080506,250.322471 C585.416944,278.578027 593.942357,306.211342 608.194437,333.157833 Z"/>
      <path fill="#FFF" d="M602.204495,342.142748 L538.221293,362.313508 L512.107385,279.478158 C536.761405,276.021072 558.089132,269.297489 576.090565,259.307409 C579.426985,287.562914 587.952432,315.196251 602.204495,342.142748 Z"/>
      <path fill="#FFB8B8" d="M471.811065,310.177985 C471.811065,310.177985 461.873192,328.397413 464.357663,334.194508 C466.842134,339.991603 487.546027,343.304222 490.030493,343.304222 C492.514958,343.304222 522.328565,336.678974 522.328565,336.678974 C522.328565,336.678974 567.87714,315.146921 554.626643,304.380895 C541.376146,293.614869 516.531476,319.287705 516.531476,319.287705 L496.655741,319.287705 L485.88971,311.834297 L471.811065,310.177985 Z"/>
      <rect width="108.241" height="48.385" x=".555" y="74.843" fill="#F2F2F2"/>
      <rect width="18.873" height="16.652" x="375.235" y="232.024" fill="#3F3D56"/>
      <rect width="18.873" height="16.652" x="337.489" y="232.024" fill="#3F3D56"/>
      <rect width="18.873" height="18.873" x="412.98" y="195.389" fill="#FEE539"/>
      <rect width="18.873" height="17.763" x="394.108" y="214.261" fill="#3F3D56"/>
      <rect width="18.873" height="17.763" x="356.362" y="214.261" fill="#3F3D56"/>
      <rect width="18.873" height="16.652" x="132.664" y="247.566" fill="#FEE539"/>
      <rect width="18.873" height="17.763" x="302.519" y="229.804" fill="#3F3D56"/>
      <rect width="18.873" height="17.763" x="189.283" y="229.804" fill="#3F3D56"/>
      <rect width="18.873" height="18.873" x="170.41" y="210.931" fill="#3F3D56"/>
      <rect width="18.873" height="17.763" x="264.774" y="229.804" fill="#3F3D56"/>
      <rect width="18.873" height="18.873" x="245.901" y="210.931" fill="#3F3D56"/>
      <rect width="18.873" height="17.763" x="227.028" y="229.804" fill="#3F3D56"/>
      <rect width="18.873" height="17.763" x="151.537" y="229.804" fill="#3F3D56"/>
      <rect width="18.873" height="18.873" x="283.646" y="210.931" fill="#FEE539"/>
      <path fill="#3F3D56" d="M368.9853 181.786244L359.180408 171.274217 369.69244 161.469325 379.49731 171.981357 368.9853 181.786244zM360.74325 171.32861L369.039693 180.223407 377.934485 171.926959 369.638042 163.032167 360.74325 171.32861zM236.275833 138.539041L221.900897 138.539041 221.900897 124.164105 236.275833 124.164105 236.275833 138.539041zM223.006668 137.43328L235.170072 137.43328 235.170072 125.269876 223.006668 125.269876 223.006668 137.43328zM503.269855 110.784984L488.894919 110.784984 488.894919 96.4100482 503.269855 96.4100482 503.269855 110.784984zM490.00069 109.679224L502.164094 109.679224 502.164094 97.5158198 490.00069 97.5158198 490.00069 109.679224zM141.230018 257.595361L140.380444 256.76607C144.287831 252.335648 147.249587 247.154152 149.084289 241.538979 151.97272 232.846436 153.383747 219.118197 143.701339 203.081848 133.794879 186.674166 133.349076 173.347384 134.719233 165.056876 136.210553 156.035925 140.014935 150.979358 140.176091 150.768632L141.119579 151.489511C141.081606 151.539074 137.310269 156.568686 135.879242 165.320645 134.558071 173.400716 135.018944 186.404602 144.717582 202.467928 154.647528 218.914455 153.176497 233.023851 150.194151 241.963932 146.96253 251.650381 141.462769 257.357098 141.230018 257.595361zM291.101923 219.849844L290.252349 219.020553C294.159735 214.590131 297.121492 209.408636 298.956193 203.793462 301.844624 195.100919 303.255652 181.372681 293.573244 165.336331 283.666783 148.928649 283.220981 135.601868 284.591137 127.311359 286.082457 118.290408 289.886839 113.233841 290.047996 113.023116L290.991484 113.743994C290.953511 113.793557 287.182173 118.82317 285.751146 127.575128 284.429975 135.6552 284.890848 148.659085 294.589486 164.722412 304.519433 181.168938 303.048401 195.278334 300.066056 204.218415 296.834434 213.904864 291.334674 219.611581 291.101923 219.849844zM421.545988 205.417735L420.696414 204.588444C424.6038 200.158022 427.565556 194.976526 429.400258 189.361353 432.288689 180.66881 433.699716 166.940571 424.017309 150.904222 414.110848 134.49654 413.665046 121.169758 415.035202 112.87925 416.526522 103.858299 420.330904 98.8017319 420.492061 98.5910064L421.435549 99.3118847C421.397576 99.3614479 417.626238 104.39106 416.195211 113.143019 414.87404 121.223091 415.334913 134.226976 425.033551 150.290302 434.963497 166.736829 433.492466 180.846225 430.51012 189.786306 427.278499 199.472755 421.778739 205.179472 421.545988 205.417735z"/>
      <rect width="52.239" height="1.187" x="28.556" y="90.116" fill="#3F3D56"/>
      <rect width="52.239" height="1.187" x="28.556" y="98.442" fill="#3F3D56"/>
      <rect width="52.239" height="1.187" x="28.556" y="106.768" fill="#3F3D56"/>
      <rect width="52.239" height="1.187" x="321.084" y="10.739" fill="#3F3D56"/>
      <rect width="52.239" height="1.187" x="321.084" y="19.065" fill="#3F3D56"/>
      <rect width="52.239" height="1.187" x="321.084" y="27.392" fill="#3F3D56"/>
      <rect width="52.239" height="1.187" x="443.757" y="195.026" fill="#3F3D56"/>
      <rect width="52.239" height="1.187" x="443.757" y="203.352" fill="#3F3D56"/>
      <rect width="52.239" height="1.187" x="443.757" y="211.678" fill="#3F3D56"/>
      <rect width="52.239" height="1.187" x="115.704" y="278.288" fill="#3F3D56"/>
      <rect width="52.239" height="1.187" x="115.704" y="286.614" fill="#3F3D56"/>
      <rect width="52.239" height="1.187" x="115.704" y="294.941" fill="#3F3D56"/>
      <path fill="#2F2E41" d="M76.5236341,61.4035572 C85.5491422,41.1578723 99.1525043,27.8401328 116.955338,21.8199616 C130.173402,17.3500265 145.459653,16.9276264 162.389511,20.5640739 C174.87349,23.2657923 186.853372,27.9191346 197.887804,34.3526665 C256.660626,68.4625073 292.996392,68.7657092 313.129129,63.0136311 C335.204151,56.706877 343.282801,41.9084974 343.361745,41.7596635 L344.342696,42.2795692 C344.261915,42.4321055 335.999393,57.6178207 313.477926,64.0687237 C300.494195,67.7876119 285.323761,67.9411362 268.388308,64.5250615 C247.311323,60.2733732 223.404051,50.4449791 197.330408,35.3130179 C186.396893,28.9380808 174.526598,24.326927 162.156777,21.6494129 C134.389815,15.6852494 97.1693937,17.8190756 77.5371456,61.8555154 L76.5236341,61.4035572 Z"/>
      <circle cx="142.101" cy="131.554" r="19.983" fill="#3F3D56"/>
      <circle cx="293.083" cy="96.584" r="19.983" fill="#3F3D56"/>
      <circle cx="423.527" cy="78.822" r="19.983" fill="#3F3D56"/>
      <path fill="#3F3D56" d="M123.783091,123.783091 L0,123.783091 L0,60.5038429 L123.783091,60.5038429 L123.783091,123.783091 Z M1.11016225,122.672929 L122.672929,122.672929 L122.672929,61.6140051 L1.11016225,61.6140051 L1.11016225,122.672929 Z"/>
      <rect width="108.241" height="48.385" x="156.533" y="33.212" fill="#F2F2F2"/>
      <rect width="52.239" height="1.187" x="184.534" y="48.485" fill="#3F3D56"/>
      <rect width="52.239" height="1.187" x="184.534" y="56.811" fill="#3F3D56"/>
      <rect width="52.239" height="1.187" x="182.868" y="63.472" fill="#3F3D56"/>
      <path fill="#3F3D56" d="M279.760888,82.1520068 L155.977797,82.1520068 L155.977797,18.8727583 L279.760888,18.8727583 L279.760888,82.1520068 Z M157.087959,81.0418446 L278.650726,81.0418446 L278.650726,19.9829206 L157.087959,19.9829206 L157.087959,81.0418446 Z"/>
      <rect width="108.241" height="48.385" x="435.739" y="14.339" fill="#F2F2F2"/>
      <rect width="52.239" height="1.187" x="463.739" y="29.612" fill="#3F3D56"/>
      <rect width="52.239" height="1.187" x="463.739" y="37.938" fill="#3F3D56"/>
      <rect width="52.239" height="1.187" x="463.739" y="46.264" fill="#3F3D56"/>
      <path fill="#3F3D56" d="M558.966695,63.2792485 L435.183604,63.2792485 L435.183604,0 L558.966695,0 L558.966695,63.2792485 Z M436.293766,62.1690863 L557.856533,62.1690863 L557.856533,1.11016225 L436.293766,1.11016225 L436.293766,62.1690863 Z"/>
    </g>
  </g>
</svg>
